<svg width="44" height="44" viewBox="0 0 44 44" fill="none" xmlns="http://www.w3.org/2000/svg">
<rect width="44" height="44" rx="7" fill="#E69138"/>
<path d="M15.7164 25.208C15.7911 25.208 15.8657 25.222 15.9404 25.25C16.0244 25.2687 16.1224 25.3153 16.2344 25.39C16.4024 25.5393 16.6031 25.6653 16.8364 25.768C17.0791 25.8613 17.3544 25.908 17.6624 25.908C18.0077 25.908 18.3251 25.8287 18.6144 25.67C18.9131 25.502 19.1557 25.2687 19.3424 24.97C19.5291 24.6713 19.6224 24.3167 19.6224 23.906C19.6224 23.486 19.5337 23.1453 19.3564 22.884C19.1884 22.6133 18.9597 22.4127 18.6704 22.282C18.3904 22.142 18.0964 22.072 17.7884 22.072C17.6204 22.072 17.4757 22.0907 17.3544 22.128C17.2331 22.156 17.1164 22.1887 17.0044 22.226C16.8924 22.254 16.7711 22.268 16.6404 22.268C16.4537 22.268 16.3091 22.2073 16.2064 22.086C16.1131 21.9553 16.0664 21.8013 16.0664 21.624C16.0664 21.512 16.0851 21.414 16.1224 21.33C16.1691 21.246 16.2344 21.1573 16.3184 21.064L18.9084 18.208L19.2164 18.488H15.5064C15.3197 18.488 15.1611 18.4273 15.0304 18.306C14.9091 18.1753 14.8484 18.0167 14.8484 17.83C14.8484 17.6527 14.9091 17.5033 15.0304 17.382C15.1611 17.2607 15.3197 17.2 15.5064 17.2H19.9304C20.1824 17.2 20.3644 17.27 20.4764 17.41C20.5977 17.55 20.6584 17.7133 20.6584 17.9C20.6584 18.0027 20.6304 18.1007 20.5744 18.194C20.5277 18.2873 20.4624 18.376 20.3784 18.46L17.7884 21.33L17.4244 20.952C17.5084 20.9147 17.6344 20.8773 17.8024 20.84C17.9797 20.8027 18.1244 20.784 18.2364 20.784C18.7777 20.784 19.2584 20.9193 19.6784 21.19C20.0984 21.4607 20.4297 21.8247 20.6724 22.282C20.9151 22.73 21.0364 23.2387 21.0364 23.808C21.0364 24.4893 20.8824 25.082 20.5744 25.586C20.2664 26.0807 19.8371 26.4633 19.2864 26.734C18.7451 27.0047 18.1197 27.14 17.4104 27.14C17.0464 27.14 16.6917 27.0933 16.3464 27C16.0011 26.8973 15.6977 26.7527 15.4364 26.566C15.2777 26.4727 15.1704 26.3747 15.1144 26.272C15.0584 26.16 15.0304 26.0527 15.0304 25.95C15.0304 25.7727 15.0957 25.6047 15.2264 25.446C15.3571 25.2873 15.5204 25.208 15.7164 25.208ZM26.2932 19.02L23.1432 26.58C23.0872 26.7293 23.0032 26.846 22.8912 26.93C22.7792 27.014 22.6532 27.056 22.5132 27.056C22.3078 27.056 22.1538 27 22.0512 26.888C21.9485 26.7667 21.8925 26.6173 21.8832 26.44C21.8832 26.3747 21.8972 26.3 21.9252 26.216L25.4812 17.62C25.5465 17.4613 25.6398 17.34 25.7612 17.256C25.8918 17.172 26.0318 17.1347 26.1812 17.144C26.3212 17.144 26.4518 17.186 26.5732 17.27C26.6945 17.354 26.7832 17.4707 26.8392 17.62L30.3532 26.09C30.3905 26.1833 30.4092 26.2767 30.4092 26.37C30.4092 26.5753 30.3392 26.7433 30.1992 26.874C30.0685 26.9953 29.9192 27.056 29.7512 27.056C29.6112 27.056 29.4805 27.014 29.3592 26.93C29.2472 26.8367 29.1632 26.72 29.1072 26.58L25.9292 19.062L26.2932 19.02ZM23.7032 24.592L24.3332 23.248H28.2952L28.5332 24.592H23.7032Z" fill="black"/>
</svg>
