<svg width="44" height="44" viewBox="0 0 44 44" fill="none" xmlns="http://www.w3.org/2000/svg">
<rect width="44" height="44" rx="7" fill="#E69138"/>
<path d="M15.6275 25.208C15.7022 25.208 15.7769 25.222 15.8515 25.25C15.9355 25.2687 16.0335 25.3153 16.1455 25.39C16.3135 25.5393 16.5142 25.6653 16.7475 25.768C16.9902 25.8613 17.2655 25.908 17.5735 25.908C17.9189 25.908 18.2362 25.8287 18.5255 25.67C18.8242 25.502 19.0669 25.2687 19.2535 24.97C19.4402 24.6713 19.5335 24.3167 19.5335 23.906C19.5335 23.486 19.4449 23.1453 19.2675 22.884C19.0995 22.6133 18.8709 22.4127 18.5815 22.282C18.3015 22.142 18.0075 22.072 17.6995 22.072C17.5315 22.072 17.3869 22.0907 17.2655 22.128C17.1442 22.156 17.0275 22.1887 16.9155 22.226C16.8035 22.254 16.6822 22.268 16.5515 22.268C16.3649 22.268 16.2202 22.2073 16.1175 22.086C16.0242 21.9553 15.9775 21.8013 15.9775 21.624C15.9775 21.512 15.9962 21.414 16.0335 21.33C16.0802 21.246 16.1455 21.1573 16.2295 21.064L18.8195 18.208L19.1275 18.488H15.4175C15.2309 18.488 15.0722 18.4273 14.9415 18.306C14.8202 18.1753 14.7595 18.0167 14.7595 17.83C14.7595 17.6527 14.8202 17.5033 14.9415 17.382C15.0722 17.2607 15.2309 17.2 15.4175 17.2H19.8415C20.0935 17.2 20.2755 17.27 20.3875 17.41C20.5089 17.55 20.5695 17.7133 20.5695 17.9C20.5695 18.0027 20.5415 18.1007 20.4855 18.194C20.4389 18.2873 20.3735 18.376 20.2895 18.46L17.6995 21.33L17.3355 20.952C17.4195 20.9147 17.5455 20.8773 17.7135 20.84C17.8909 20.8027 18.0355 20.784 18.1475 20.784C18.6889 20.784 19.1695 20.9193 19.5895 21.19C20.0095 21.4607 20.3409 21.8247 20.5835 22.282C20.8262 22.73 20.9475 23.2387 20.9475 23.808C20.9475 24.4893 20.7935 25.082 20.4855 25.586C20.1775 26.0807 19.7482 26.4633 19.1975 26.734C18.6562 27.0047 18.0309 27.14 17.3215 27.14C16.9575 27.14 16.6029 27.0933 16.2575 27C15.9122 26.8973 15.6089 26.7527 15.3475 26.566C15.1889 26.4727 15.0815 26.3747 15.0255 26.272C14.9695 26.16 14.9415 26.0527 14.9415 25.95C14.9415 25.7727 15.0069 25.6047 15.1375 25.446C15.2682 25.2873 15.4315 25.208 15.6275 25.208ZM27.0023 17.2C27.861 17.2 28.5096 17.41 28.9483 17.83C29.3963 18.25 29.6203 18.8613 29.6203 19.664C29.6203 20.084 29.5176 20.4667 29.3123 20.812C29.1163 21.148 28.8223 21.414 28.4303 21.61C28.0476 21.806 27.567 21.9087 26.9883 21.918L27.0163 21.4C27.3243 21.4 27.6556 21.442 28.0103 21.526C28.3743 21.61 28.715 21.7547 29.0323 21.96C29.3496 22.1653 29.611 22.4453 29.8163 22.8C30.0216 23.1453 30.1243 23.5793 30.1243 24.102C30.1243 24.6713 30.031 25.1473 29.8443 25.53C29.6576 25.9033 29.4103 26.1973 29.1023 26.412C28.7943 26.6267 28.4536 26.7807 28.0803 26.874C27.7163 26.958 27.357 27 27.0023 27H23.4183C23.2223 27 23.0543 26.9347 22.9143 26.804C22.7743 26.664 22.7043 26.4913 22.7043 26.286V17.914C22.7043 17.7087 22.7743 17.5407 22.9143 17.41C23.0543 17.27 23.2223 17.2 23.4183 17.2H27.0023ZM26.8063 18.572H24.0483L24.2163 18.348V21.358L24.0623 21.204H26.8343C27.1703 21.1947 27.4643 21.0827 27.7163 20.868C27.9776 20.644 28.1083 20.3173 28.1083 19.888C28.1083 19.4493 27.9916 19.1227 27.7583 18.908C27.525 18.684 27.2076 18.572 26.8063 18.572ZM26.9043 22.576H24.1183L24.2163 22.478V25.782L24.1043 25.656H26.9883C27.4736 25.656 27.8656 25.53 28.1643 25.278C28.463 25.0167 28.6123 24.6247 28.6123 24.102C28.6123 23.6633 28.5236 23.3367 28.3463 23.122C28.169 22.9073 27.9496 22.7627 27.6883 22.688C27.427 22.6133 27.1656 22.576 26.9043 22.576Z" fill="black"/>
</svg>
