<svg width="44" height="44" viewBox="0 0 44 44" fill="none" xmlns="http://www.w3.org/2000/svg">
<rect width="44" height="44" rx="7" fill="#E69138"/>
<path d="M15.7574 25.208C15.8321 25.208 15.9067 25.222 15.9814 25.25C16.0654 25.2687 16.1634 25.3153 16.2754 25.39C16.4434 25.5393 16.6441 25.6653 16.8774 25.768C17.1201 25.8613 17.3954 25.908 17.7034 25.908C18.0487 25.908 18.3661 25.8287 18.6554 25.67C18.9541 25.502 19.1967 25.2687 19.3834 24.97C19.5701 24.6713 19.6634 24.3167 19.6634 23.906C19.6634 23.486 19.5747 23.1453 19.3974 22.884C19.2294 22.6133 19.0007 22.4127 18.7114 22.282C18.4314 22.142 18.1374 22.072 17.8294 22.072C17.6614 22.072 17.5167 22.0907 17.3954 22.128C17.2741 22.156 17.1574 22.1887 17.0454 22.226C16.9334 22.254 16.8121 22.268 16.6814 22.268C16.4947 22.268 16.3501 22.2073 16.2474 22.086C16.1541 21.9553 16.1074 21.8013 16.1074 21.624C16.1074 21.512 16.1261 21.414 16.1634 21.33C16.2101 21.246 16.2754 21.1573 16.3594 21.064L18.9494 18.208L19.2574 18.488H15.5474C15.3607 18.488 15.2021 18.4273 15.0714 18.306C14.9501 18.1753 14.8894 18.0167 14.8894 17.83C14.8894 17.6527 14.9501 17.5033 15.0714 17.382C15.2021 17.2607 15.3607 17.2 15.5474 17.2H19.9714C20.2234 17.2 20.4054 17.27 20.5174 17.41C20.6387 17.55 20.6994 17.7133 20.6994 17.9C20.6994 18.0027 20.6714 18.1007 20.6154 18.194C20.5687 18.2873 20.5034 18.376 20.4194 18.46L17.8294 21.33L17.4654 20.952C17.5494 20.9147 17.6754 20.8773 17.8434 20.84C18.0207 20.8027 18.1654 20.784 18.2774 20.784C18.8187 20.784 19.2994 20.9193 19.7194 21.19C20.1394 21.4607 20.4707 21.8247 20.7134 22.282C20.9561 22.73 21.0774 23.2387 21.0774 23.808C21.0774 24.4893 20.9234 25.082 20.6154 25.586C20.3074 26.0807 19.8781 26.4633 19.3274 26.734C18.7861 27.0047 18.1607 27.14 17.4514 27.14C17.0874 27.14 16.7327 27.0933 16.3874 27C16.0421 26.8973 15.7387 26.7527 15.4774 26.566C15.3187 26.4727 15.2114 26.3747 15.1554 26.272C15.0994 26.16 15.0714 26.0527 15.0714 25.95C15.0714 25.7727 15.1367 25.6047 15.2674 25.446C15.3981 25.2873 15.5614 25.208 15.7574 25.208ZM29.7922 17.76C29.9975 17.8627 30.1142 18.0213 30.1422 18.236C30.1795 18.4507 30.1282 18.6467 29.9882 18.824C29.8855 18.964 29.7502 19.0433 29.5822 19.062C29.4235 19.0807 29.2649 19.048 29.1062 18.964C28.8355 18.824 28.5509 18.712 28.2522 18.628C27.9535 18.544 27.6362 18.502 27.3002 18.502C26.7682 18.502 26.2875 18.5907 25.8582 18.768C25.4382 18.936 25.0742 19.1833 24.7662 19.51C24.4582 19.8273 24.2202 20.2053 24.0522 20.644C23.8935 21.0827 23.8142 21.568 23.8142 22.1C23.8142 22.688 23.9029 23.2107 24.0802 23.668C24.2575 24.116 24.5002 24.4987 24.8082 24.816C25.1255 25.124 25.4942 25.3573 25.9142 25.516C26.3435 25.6653 26.8055 25.74 27.3002 25.74C27.6175 25.74 27.9255 25.7027 28.2242 25.628C28.5322 25.5533 28.8215 25.4413 29.0922 25.292C29.2602 25.208 29.4235 25.18 29.5822 25.208C29.7502 25.2267 29.8855 25.306 29.9882 25.446C30.1469 25.642 30.2029 25.8427 30.1562 26.048C30.1189 26.244 30.0022 26.3933 29.8062 26.496C29.5729 26.6267 29.3162 26.7387 29.0362 26.832C28.7562 26.9253 28.4715 27 28.1822 27.056C27.8929 27.112 27.5989 27.14 27.3002 27.14C26.6282 27.14 25.9935 27.028 25.3962 26.804C24.7989 26.58 24.2669 26.2533 23.8002 25.824C23.3335 25.3947 22.9649 24.8673 22.6942 24.242C22.4329 23.6167 22.3022 22.9027 22.3022 22.1C22.3022 21.3813 22.4235 20.7187 22.6662 20.112C22.9182 19.496 23.2682 18.9687 23.7162 18.53C24.1735 18.082 24.7055 17.7367 25.3122 17.494C25.9189 17.242 26.5815 17.116 27.3002 17.116C27.7482 17.116 28.1822 17.172 28.6022 17.284C29.0315 17.396 29.4282 17.5547 29.7922 17.76Z" fill="black"/>
</svg>
