<svg width="44" height="44" viewBox="0 0 44 44" fill="none" xmlns="http://www.w3.org/2000/svg">
<rect width="44" height="44" rx="7" fill="#DD7E6B"/>
<path d="M14.6969 25.208C14.7715 25.208 14.8462 25.222 14.9209 25.25C15.0049 25.2687 15.1029 25.3153 15.2149 25.39C15.3829 25.5393 15.5835 25.6653 15.8169 25.768C16.0595 25.8613 16.3349 25.908 16.6429 25.908C16.9882 25.908 17.3055 25.8287 17.5949 25.67C17.8935 25.502 18.1362 25.2687 18.3229 24.97C18.5095 24.6713 18.6029 24.3167 18.6029 23.906C18.6029 23.486 18.5142 23.1453 18.3369 22.884C18.1689 22.6133 17.9402 22.4127 17.6509 22.282C17.3709 22.142 17.0769 22.072 16.7689 22.072C16.6009 22.072 16.4562 22.0907 16.3349 22.128C16.2135 22.156 16.0969 22.1887 15.9849 22.226C15.8729 22.254 15.7515 22.268 15.6209 22.268C15.4342 22.268 15.2895 22.2073 15.1869 22.086C15.0935 21.9553 15.0469 21.8013 15.0469 21.624C15.0469 21.512 15.0655 21.414 15.1029 21.33C15.1495 21.246 15.2149 21.1573 15.2989 21.064L17.8889 18.208L18.1969 18.488H14.4869C14.3002 18.488 14.1415 18.4273 14.0109 18.306C13.8895 18.1753 13.8289 18.0167 13.8289 17.83C13.8289 17.6527 13.8895 17.5033 14.0109 17.382C14.1415 17.2607 14.3002 17.2 14.4869 17.2H18.9109C19.1629 17.2 19.3449 17.27 19.4569 17.41C19.5782 17.55 19.6389 17.7133 19.6389 17.9C19.6389 18.0027 19.6109 18.1007 19.5549 18.194C19.5082 18.2873 19.4429 18.376 19.3589 18.46L16.7689 21.33L16.4049 20.952C16.4889 20.9147 16.6149 20.8773 16.7829 20.84C16.9602 20.8027 17.1049 20.784 17.2169 20.784C17.7582 20.784 18.2389 20.9193 18.6589 21.19C19.0789 21.4607 19.4102 21.8247 19.6529 22.282C19.8955 22.73 20.0169 23.2387 20.0169 23.808C20.0169 24.4893 19.8629 25.082 19.5549 25.586C19.2469 26.0807 18.8175 26.4633 18.2669 26.734C17.7255 27.0047 17.1002 27.14 16.3909 27.14C16.0269 27.14 15.6722 27.0933 15.3269 27C14.9815 26.8973 14.6782 26.7527 14.4169 26.566C14.2582 26.4727 14.1509 26.3747 14.0949 26.272C14.0389 26.16 14.0109 26.0527 14.0109 25.95C14.0109 25.7727 14.0762 25.6047 14.2069 25.446C14.3375 25.2873 14.5009 25.208 14.6969 25.208ZM25.9036 17.2C26.585 17.2 27.187 17.3307 27.7096 17.592C28.2323 17.844 28.6663 18.1987 29.0116 18.656C29.3663 19.104 29.6323 19.6267 29.8096 20.224C29.987 20.812 30.0756 21.4373 30.0756 22.1C30.0756 23.0053 29.917 23.8313 29.5996 24.578C29.2823 25.3153 28.8156 25.9033 28.1996 26.342C27.5836 26.7807 26.8183 27 25.9036 27H22.4876C22.2916 27 22.1236 26.9347 21.9836 26.804C21.8436 26.664 21.7736 26.4913 21.7736 26.286V17.914C21.7736 17.7087 21.8436 17.5407 21.9836 17.41C22.1236 17.27 22.2916 17.2 22.4876 17.2H25.9036ZM25.7636 25.656C26.4263 25.656 26.963 25.4927 27.3736 25.166C27.7843 24.8393 28.083 24.41 28.2696 23.878C28.4656 23.3367 28.5636 22.744 28.5636 22.1C28.5636 21.624 28.5076 21.176 28.3956 20.756C28.293 20.3267 28.125 19.9487 27.8916 19.622C27.6676 19.286 27.3783 19.0247 27.0236 18.838C26.6783 18.642 26.2583 18.544 25.7636 18.544H23.1176L23.2436 18.418V25.796L23.1596 25.656H25.7636Z" fill="black"/>
</svg>
