<svg xmlns="http://www.w3.org/2000/svg" xmlns:xlink="http://www.w3.org/1999/xlink" width="48" zoomAndPan="magnify" viewBox="0 0 36 36.000001" height="48" preserveAspectRatio="xMidYMid meet" version="1.0"><defs><clipPath id="0e7e30ba82"><path d="M 0.488281 0 L 35.511719 0 L 35.511719 35.027344 L 0.488281 35.027344 Z M 0.488281 0 " clip-rule="nonzero"/></clipPath><clipPath id="2f6e36eeda"><path d="M 0.488281 7.804688 L 35.511719 7.804688 L 35.511719 27.507812 L 0.488281 27.507812 Z M 0.488281 7.804688 " clip-rule="nonzero"/></clipPath></defs><g clip-path="url(#0e7e30ba82)"><path fill="#ffffff" d="M 0.488281 0 L 35.511719 0 L 35.511719 35.027344 L 0.488281 35.027344 Z M 0.488281 0 " fill-opacity="1" fill-rule="nonzero"/><path fill="#ffffff" d="M 0.488281 0 L 35.511719 0 L 35.511719 35.027344 L 0.488281 35.027344 Z M 0.488281 0 " fill-opacity="1" fill-rule="nonzero"/></g><g clip-path="url(#2f6e36eeda)"><path fill="#000000" d="M 33.085938 7.988281 C 35.816406 7.988281 36.476562 9.566406 34.53125 11.535156 L 19.9375 26.292969 C 18.964844 27.277344 17.375 27.261719 16.414062 26.292969 L 1.824219 11.535156 C -0.109375 9.578125 0.539062 7.988281 3.269531 7.988281 Z M 33.085938 7.988281 " fill-opacity="1" fill-rule="evenodd"/></g></svg>