<svg width="45" height="54" viewBox="0 0 45 54" fill="none" xmlns="http://www.w3.org/2000/svg">
<rect x="3.49976" y="6.24992" width="40.6" height="40.6" rx="20.3" fill="white"/>
<path d="M17.4345 42.6195C8.09773 42.6195 1.3275 35.628 1.3275 26.5125C1.3275 17.3971 8.09773 10.4056 17.4345 10.4056C23.0542 10.4056 28.0102 13.1933 30.7094 17.5741L24.6029 21.1141C23.2312 18.7246 20.5762 17.3086 17.4345 17.3086C11.9475 17.3086 8.40748 20.9813 8.40748 26.5125C8.40748 32.0438 11.9475 35.7165 17.4345 35.7165C20.5762 35.7165 23.2754 34.3005 24.6029 31.911L30.7094 35.451C28.0544 39.8318 23.0984 42.6195 17.4345 42.6195Z" fill="#005F73"/>
</svg>
