<svg xmlns="http://www.w3.org/2000/svg" xmlns:xlink="http://www.w3.org/1999/xlink" width="50" zoomAndPan="magnify" viewBox="0 0 37.5 37.499999" height="50" preserveAspectRatio="xMidYMid meet" version="1.0"><defs><clipPath id="f700014401"><path d="M 0 0 L 37.007812 0 L 37.007812 37.007812 L 0 37.007812 Z M 0 0 " clip-rule="nonzero"/></clipPath><clipPath id="f5bb89c54b"><path d="M 1 1 L 36 1 L 36 36.347656 L 1 36.347656 Z M 1 1 " clip-rule="nonzero"/></clipPath></defs><g clip-path="url(#f700014401)"><path fill="#ffffff" d="M 0 0 L 37.007812 0 L 37.007812 37.007812 L 0 37.007812 Z M 0 0 " fill-opacity="1" fill-rule="nonzero"/><path fill="#ffffff" d="M 0 0 L 37.007812 0 L 37.007812 37.007812 L 0 37.007812 Z M 0 0 " fill-opacity="1" fill-rule="nonzero"/></g><g clip-path="url(#f5bb89c54b)"><path fill="#24577b" d="M 22.984375 18.65625 L 35.066406 6.578125 C 36.308594 5.335938 36.308594 3.332031 35.066406 2.089844 C 33.824219 0.847656 31.820312 0.847656 30.578125 2.089844 L 18.5 14.171875 L 6.417969 2.089844 C 5.175781 0.847656 3.171875 0.847656 1.929688 2.089844 C 0.6875 3.332031 0.6875 5.335938 1.929688 6.578125 L 14.011719 18.65625 L 1.929688 30.738281 C 0.6875 31.980469 0.6875 33.980469 1.929688 35.222656 C 2.550781 35.84375 3.363281 36.148438 4.175781 36.148438 C 4.984375 36.148438 5.796875 35.84375 6.417969 35.222656 L 18.5 23.144531 L 30.578125 35.222656 C 31.199219 35.84375 32.011719 36.148438 32.820312 36.148438 C 33.632812 36.148438 34.445312 35.84375 35.066406 35.222656 C 36.308594 33.980469 36.308594 31.980469 35.066406 30.738281 Z M 22.984375 18.65625 " fill-opacity="1" fill-rule="nonzero"/></g></svg>