<svg xmlns="http://www.w3.org/2000/svg" xmlns:xlink="http://www.w3.org/1999/xlink" width="50" zoomAndPan="magnify" viewBox="0 0 37.5 37.499999" height="50" preserveAspectRatio="xMidYMid meet" version="1.0"><defs><clipPath id="f3ef7ee440"><path d="M 0 0 L 37.007812 0 L 37.007812 37.007812 L 0 37.007812 Z M 0 0 " clip-rule="nonzero"/></clipPath><clipPath id="de84e0de63"><path d="M 0.230469 16 L 36.5 16 L 36.5 21 L 0.230469 21 Z M 0.230469 16 " clip-rule="nonzero"/></clipPath><clipPath id="2d5fae5d12"><path d="M 0.230469 26 L 36.5 26 L 36.5 31.457031 L 0.230469 31.457031 Z M 0.230469 26 " clip-rule="nonzero"/></clipPath><clipPath id="143afda6d0"><path d="M 0.230469 5.554688 L 36.5 5.554688 L 36.5 11 L 0.230469 11 Z M 0.230469 5.554688 " clip-rule="nonzero"/></clipPath></defs><g clip-path="url(#f3ef7ee440)"><path fill="#ffffff" d="M 0 0 L 37.007812 0 L 37.007812 37.007812 L 0 37.007812 Z M 0 0 " fill-opacity="1" fill-rule="nonzero"/><path fill="#ffffff" d="M 0 0 L 37.007812 0 L 37.007812 37.007812 L 0 37.007812 Z M 0 0 " fill-opacity="1" fill-rule="nonzero"/></g><g clip-path="url(#de84e0de63)"><path fill="#24577b" d="M 34.480469 16.214844 L 2.515625 16.214844 C 1.253906 16.214844 0.230469 17.238281 0.230469 18.5 C 0.230469 19.761719 1.253906 20.785156 2.515625 20.785156 L 34.480469 20.785156 C 35.742188 20.785156 36.765625 19.761719 36.765625 18.5 C 36.765625 17.238281 35.742188 16.214844 34.480469 16.214844 Z M 34.480469 16.214844 " fill-opacity="1" fill-rule="nonzero"/></g><g clip-path="url(#2d5fae5d12)"><path fill="#24577b" d="M 34.480469 26.871094 L 2.515625 26.871094 C 1.253906 26.871094 0.230469 27.894531 0.230469 29.15625 C 0.230469 30.417969 1.253906 31.4375 2.515625 31.4375 L 34.480469 31.4375 C 35.742188 31.4375 36.765625 30.417969 36.765625 29.15625 C 36.765625 27.894531 35.742188 26.871094 34.480469 26.871094 Z M 34.480469 26.871094 " fill-opacity="1" fill-rule="nonzero"/></g><g clip-path="url(#143afda6d0)"><path fill="#24577b" d="M 2.515625 10.128906 L 34.480469 10.128906 C 35.742188 10.128906 36.765625 9.105469 36.765625 7.84375 C 36.765625 6.582031 35.742188 5.5625 34.480469 5.5625 L 2.515625 5.5625 C 1.253906 5.5625 0.230469 6.582031 0.230469 7.84375 C 0.230469 9.105469 1.253906 10.128906 2.515625 10.128906 Z M 2.515625 10.128906 " fill-opacity="1" fill-rule="nonzero"/></g></svg>