<svg xmlns="http://www.w3.org/2000/svg" xmlns:xlink="http://www.w3.org/1999/xlink" width="64" zoomAndPan="magnify" viewBox="0 0 48 48" height="64" preserveAspectRatio="xMidYMid meet" version="1.0"><defs><clipPath id="802424be4f"><path d="M 0.488281 0 L 47.507812 0 L 47.507812 47.019531 L 0.488281 47.019531 Z M 0.488281 0 " clip-rule="nonzero"/></clipPath><clipPath id="72095927af"><path d="M 24 0 C 11.015625 0 0.488281 10.527344 0.488281 23.511719 C 0.488281 36.496094 11.015625 47.019531 24 47.019531 C 36.984375 47.019531 47.511719 36.496094 47.511719 23.511719 C 47.511719 10.527344 36.984375 0 24 0 Z M 24 0 " clip-rule="nonzero"/></clipPath><clipPath id="43063496cb"><path d="M 12 21 L 36 21 L 36 39.488281 L 12 39.488281 Z M 12 21 " clip-rule="nonzero"/></clipPath><clipPath id="cbf735af87"><path d="M 7.765625 8 L 40.09375 8 L 40.09375 23 L 7.765625 23 Z M 7.765625 8 " clip-rule="nonzero"/></clipPath></defs><g clip-path="url(#802424be4f)"><g clip-path="url(#72095927af)"><path fill="#f1c232" d="M 0.488281 0 L 47.511719 0 L 47.511719 47.019531 L 0.488281 47.019531 Z M 0.488281 0 " fill-opacity="1" fill-rule="nonzero"/></g></g><g clip-path="url(#43063496cb)"><path fill="#ffffff" d="M 34.496094 36.863281 C 34.496094 37.277344 34.160156 37.609375 33.75 37.609375 L 28.503906 37.609375 C 28.089844 37.609375 27.757812 37.269531 27.757812 36.863281 L 27.757812 29.082031 C 27.757812 27.84375 26.75 26.835938 25.511719 26.835938 L 22.511719 26.835938 C 21.273438 26.835938 20.265625 27.84375 20.265625 29.082031 L 20.265625 36.863281 C 20.265625 37.277344 19.929688 37.609375 19.519531 37.609375 L 14.253906 37.609375 C 13.835938 37.609375 13.507812 37.269531 13.507812 36.863281 L 13.507812 21.871094 L 12.007812 21.871094 L 12.007812 36.863281 C 12.007812 38.101562 13.011719 39.109375 14.253906 39.109375 L 19.5 39.109375 C 20.738281 39.109375 21.746094 38.101562 21.746094 36.863281 L 21.746094 29.082031 C 21.746094 28.667969 22.082031 28.335938 22.492188 28.335938 L 25.492188 28.335938 C 25.90625 28.335938 26.238281 28.675781 26.238281 29.082031 L 26.238281 36.863281 C 26.238281 38.101562 27.246094 39.109375 28.484375 39.109375 L 33.730469 39.109375 C 34.972656 39.109375 35.976562 38.101562 35.976562 36.863281 L 35.976562 21.871094 L 34.476562 21.871094 Z M 34.496094 36.863281 " fill-opacity="1" fill-rule="nonzero"/></g><g clip-path="url(#cbf735af87)"><path fill="#ffffff" d="M 25.460938 8.636719 C 24.609375 7.910156 23.382812 7.910156 22.53125 8.636719 L 7.765625 21.296875 L 8.742188 22.433594 L 23.511719 9.773438 C 23.796875 9.53125 24.207031 9.53125 24.484375 9.773438 L 39.257812 22.433594 L 40.230469 21.296875 Z M 25.460938 8.636719 " fill-opacity="1" fill-rule="nonzero"/></g></svg>