<svg width="48" height="48" viewBox="0 0 48 48" fill="none" xmlns="http://www.w3.org/2000/svg">
<circle cx="24" cy="24" r="23" fill="#F8F8F8" stroke="#F1C232" stroke-width="2"/>
<path d="M24.5129 29.236C24.7649 29.236 24.9749 29.32 25.1429 29.488C25.3229 29.656 25.4129 29.866 25.4129 30.118C25.4129 30.37 25.3229 30.58 25.1429 30.748C24.9749 30.916 24.7649 31 24.5129 31H18.4649C18.2009 31 17.9789 30.916 17.7989 30.748C17.6309 30.568 17.5469 30.346 17.5469 30.082V19.318C17.5469 19.054 17.6369 18.838 17.8169 18.67C17.9969 18.49 18.2309 18.4 18.5189 18.4C18.7589 18.4 18.9689 18.49 19.1489 18.67C19.3409 18.838 19.4369 19.054 19.4369 19.318V29.542L19.0589 29.236H24.5129ZM30.2325 31C29.9565 31 29.7285 30.916 29.5485 30.748C29.3685 30.568 29.2785 30.346 29.2785 30.082V20.434L29.5125 20.758L27.8385 21.928C27.6945 22.048 27.5205 22.108 27.3165 22.108C27.0765 22.108 26.8605 22.018 26.6685 21.838C26.4885 21.646 26.3985 21.424 26.3985 21.172C26.3985 20.86 26.5545 20.602 26.8665 20.398L29.6025 18.58C29.7105 18.508 29.8245 18.46 29.9445 18.436C30.0765 18.412 30.1965 18.4 30.3045 18.4C30.5805 18.4 30.8025 18.49 30.9705 18.67C31.1385 18.838 31.2225 19.054 31.2225 19.318V30.082C31.2225 30.346 31.1265 30.568 30.9345 30.748C30.7545 30.916 30.5205 31 30.2325 31Z" fill="black"/>
</svg>
