<svg width="48" height="48" viewBox="0 0 48 48" fill="none" xmlns="http://www.w3.org/2000/svg">
<circle cx="24" cy="24" r="24" fill="#F1C232"/>
<path d="M21.8781 28.236C22.1301 28.236 22.3401 28.32 22.5081 28.488C22.6881 28.656 22.7781 28.866 22.7781 29.118C22.7781 29.37 22.6881 29.58 22.5081 29.748C22.3401 29.916 22.1301 30 21.8781 30H15.8301C15.5661 30 15.3441 29.916 15.1641 29.748C14.9961 29.568 14.9121 29.346 14.9121 29.082V18.318C14.9121 18.054 15.0021 17.838 15.1821 17.67C15.3621 17.49 15.5961 17.4 15.8841 17.4C16.1241 17.4 16.3341 17.49 16.5141 17.67C16.7061 17.838 16.8021 18.054 16.8021 18.318V28.542L16.4241 28.236H21.8781ZM31.7197 28.326C31.9597 28.326 32.1577 28.41 32.3137 28.578C32.4817 28.734 32.5657 28.932 32.5657 29.172C32.5657 29.412 32.4817 29.61 32.3137 29.766C32.1577 29.922 31.9597 30 31.7197 30H25.4017C25.1377 30 24.9277 29.922 24.7717 29.766C24.6157 29.61 24.5377 29.4 24.5377 29.136C24.5377 28.896 24.6217 28.68 24.7897 28.488L28.8037 24.15C29.3197 23.598 29.7157 23.052 29.9917 22.512C30.2797 21.972 30.4237 21.498 30.4237 21.09C30.4237 20.43 30.2257 19.896 29.8297 19.488C29.4337 19.08 28.9117 18.876 28.2637 18.876C27.9877 18.876 27.7057 18.942 27.4177 19.074C27.1417 19.194 26.8777 19.362 26.6257 19.578C26.3857 19.782 26.1757 20.022 25.9957 20.298C25.8757 20.466 25.7557 20.574 25.6357 20.622C25.5157 20.67 25.4017 20.694 25.2937 20.694C25.0657 20.694 24.8557 20.616 24.6637 20.46C24.4837 20.292 24.3937 20.1 24.3937 19.884C24.3937 19.716 24.4477 19.554 24.5557 19.398C24.6637 19.242 24.8017 19.08 24.9697 18.912C25.2337 18.588 25.5517 18.3 25.9237 18.048C26.3077 17.784 26.7097 17.58 27.1297 17.436C27.5497 17.292 27.9637 17.22 28.3717 17.22C29.1637 17.22 29.8477 17.376 30.4237 17.688C31.0117 18 31.4617 18.438 31.7737 19.002C32.0977 19.566 32.2597 20.232 32.2597 21C32.2597 21.648 32.0617 22.368 31.6657 23.16C31.2817 23.94 30.7417 24.708 30.0457 25.464L27.2557 28.506L27.0577 28.326H31.7197Z" fill="black"/>
</svg>
