<svg width="48" height="48" viewBox="0 0 48 48" fill="none" xmlns="http://www.w3.org/2000/svg">
<circle cx="24" cy="24" r="24" fill="#F1C232"/>
<path d="M23.7765 28.236C24.0285 28.236 24.2385 28.32 24.4065 28.488C24.5865 28.656 24.6765 28.866 24.6765 29.118C24.6765 29.37 24.5865 29.58 24.4065 29.748C24.2385 29.916 24.0285 30 23.7765 30H17.7285C17.4645 30 17.2425 29.916 17.0625 29.748C16.8945 29.568 16.8105 29.346 16.8105 29.082V18.318C16.8105 18.054 16.9005 17.838 17.0805 17.67C17.2605 17.49 17.4945 17.4 17.7825 17.4C18.0225 17.4 18.2325 17.49 18.4125 17.67C18.6045 17.838 18.7005 18.054 18.7005 18.318V28.542L18.3225 28.236H23.7765ZM29.2082 30C28.9322 30 28.7042 29.916 28.5242 29.748C28.3442 29.568 28.2542 29.346 28.2542 29.082V19.434L28.4882 19.758L26.7602 20.784C26.6162 20.88 26.4602 20.928 26.2922 20.928C26.0282 20.928 25.8062 20.832 25.6262 20.64C25.4582 20.436 25.3742 20.22 25.3742 19.992C25.3742 19.668 25.5302 19.41 25.8422 19.218L28.6682 17.526C28.8482 17.43 29.0702 17.388 29.3342 17.4C29.5862 17.4 29.7902 17.49 29.9462 17.67C30.1142 17.838 30.1982 18.054 30.1982 18.318V29.082C30.1982 29.346 30.1022 29.568 29.9102 29.748C29.7302 29.916 29.4962 30 29.2082 30Z" fill="black"/>
</svg>
