<svg width="48" height="48" viewBox="0 0 48 48" fill="none" xmlns="http://www.w3.org/2000/svg">
<circle cx="24" cy="24" r="24" fill="#F1C232"/>
<path d="M21.6594 28.236C21.9114 28.236 22.1214 28.32 22.2894 28.488C22.4694 28.656 22.5594 28.866 22.5594 29.118C22.5594 29.37 22.4694 29.58 22.2894 29.748C22.1214 29.916 21.9114 30 21.6594 30H15.6114C15.3474 30 15.1254 29.916 14.9454 29.748C14.7774 29.568 14.6934 29.346 14.6934 29.082V18.318C14.6934 18.054 14.7834 17.838 14.9634 17.67C15.1434 17.49 15.3774 17.4 15.6654 17.4C15.9054 17.4 16.1154 17.49 16.2954 17.67C16.4874 17.838 16.5834 18.054 16.5834 18.318V28.542L16.2054 28.236H21.6594ZM25.039 27.696C25.135 27.696 25.237 27.714 25.345 27.75C25.453 27.774 25.573 27.834 25.705 27.93C25.921 28.122 26.179 28.284 26.479 28.416C26.791 28.536 27.145 28.596 27.541 28.596C27.985 28.596 28.399 28.494 28.783 28.29C29.167 28.074 29.479 27.774 29.719 27.39C29.959 27.006 30.079 26.55 30.079 26.022C30.079 25.482 29.965 25.044 29.737 24.708C29.509 24.36 29.215 24.102 28.855 23.934C28.495 23.754 28.117 23.664 27.721 23.664C27.493 23.664 27.301 23.688 27.145 23.736C26.989 23.772 26.839 23.814 26.695 23.862C26.551 23.898 26.395 23.916 26.227 23.916C25.999 23.916 25.819 23.838 25.687 23.682C25.555 23.514 25.489 23.316 25.489 23.088C25.489 22.944 25.519 22.818 25.579 22.71C25.639 22.602 25.723 22.482 25.831 22.35L29.161 18.786L29.557 19.146H24.787C24.547 19.146 24.343 19.068 24.175 18.912C24.019 18.744 23.941 18.54 23.941 18.3C23.941 18.072 24.019 17.88 24.175 17.724C24.343 17.568 24.547 17.49 24.787 17.49H30.475C30.787 17.49 31.015 17.58 31.159 17.76C31.315 17.94 31.393 18.15 31.393 18.39C31.393 18.522 31.357 18.648 31.285 18.768C31.225 18.888 31.147 19.002 31.051 19.11L27.703 22.71L27.253 22.224C27.349 22.176 27.511 22.128 27.739 22.08C27.967 22.032 28.153 22.008 28.297 22.008C28.981 22.008 29.593 22.182 30.133 22.53C30.685 22.878 31.111 23.346 31.411 23.934C31.723 24.51 31.879 25.164 31.879 25.896C31.879 26.772 31.681 27.534 31.285 28.182C30.889 28.818 30.337 29.31 29.629 29.658C28.933 30.006 28.129 30.18 27.217 30.18C26.761 30.18 26.305 30.12 25.849 30C25.405 29.868 25.021 29.682 24.697 29.442C24.493 29.322 24.355 29.196 24.283 29.064C24.211 28.92 24.175 28.782 24.175 28.65C24.175 28.422 24.253 28.206 24.409 28.002C24.577 27.798 24.787 27.696 25.039 27.696Z" fill="black"/>
</svg>
