<svg width="48" height="48" viewBox="0 0 48 48" fill="none" xmlns="http://www.w3.org/2000/svg">
<circle cx="24" cy="24" r="24" fill="#F1C232"/>
<path d="M21.8429 28.236C22.0949 28.236 22.3049 28.32 22.4729 28.488C22.6529 28.656 22.7429 28.866 22.7429 29.118C22.7429 29.37 22.6529 29.58 22.4729 29.748C22.3049 29.916 22.0949 30 21.8429 30H15.7949C15.5309 30 15.3089 29.916 15.1289 29.748C14.9609 29.568 14.8769 29.346 14.8769 29.082V18.318C14.8769 18.054 14.9669 17.838 15.1469 17.67C15.3269 17.49 15.5609 17.4 15.8489 17.4C16.0889 17.4 16.2989 17.49 16.4789 17.67C16.6709 17.838 16.7669 18.054 16.7669 18.318V28.542L16.3889 28.236H21.8429ZM30.2266 30C29.9746 30 29.7646 29.916 29.5966 29.748C29.4286 29.568 29.3446 29.346 29.3446 29.082V19.92L29.6686 20.028L25.7806 24.996L25.6906 24.762H32.2426C32.4826 24.762 32.6806 24.846 32.8366 25.014C33.0046 25.17 33.0886 25.368 33.0886 25.608C33.0886 25.836 33.0046 26.028 32.8366 26.184C32.6806 26.34 32.4826 26.418 32.2426 26.418H24.4486C24.2326 26.418 24.0286 26.334 23.8366 26.166C23.6446 25.986 23.5486 25.776 23.5486 25.536C23.5486 25.308 23.6266 25.104 23.7826 24.924L29.5066 17.76C29.5906 17.64 29.6986 17.55 29.8306 17.49C29.9626 17.43 30.1006 17.4 30.2446 17.4C30.5086 17.4 30.7246 17.49 30.8926 17.67C31.0606 17.838 31.1446 18.054 31.1446 18.318V29.082C31.1446 29.346 31.0546 29.568 30.8746 29.748C30.6946 29.916 30.4786 30 30.2266 30Z" fill="black"/>
</svg>
