<svg width="48" height="48" viewBox="0 0 48 48" fill="none" xmlns="http://www.w3.org/2000/svg">
<circle cx="24" cy="24" r="24" fill="#F1C232"/>
<path d="M21.8605 28.236C22.1125 28.236 22.3225 28.32 22.4905 28.488C22.6705 28.656 22.7605 28.866 22.7605 29.118C22.7605 29.37 22.6705 29.58 22.4905 29.748C22.3225 29.916 22.1125 30 21.8605 30H15.8125C15.5485 30 15.3265 29.916 15.1465 29.748C14.9785 29.568 14.8945 29.346 14.8945 29.082V18.318C14.8945 18.054 14.9845 17.838 15.1645 17.67C15.3445 17.49 15.5785 17.4 15.8665 17.4C16.1065 17.4 16.3165 17.49 16.4965 17.67C16.6885 17.838 16.7845 18.054 16.7845 18.318V28.542L16.4065 28.236H21.8605ZM27.6702 30.126C27.2022 30.126 26.7162 30.054 26.2122 29.91C25.7202 29.766 25.3002 29.55 24.9522 29.262C24.8202 29.154 24.7182 29.016 24.6462 28.848C24.5742 28.68 24.5382 28.518 24.5382 28.362C24.5382 28.194 24.6102 28.032 24.7542 27.876C24.9102 27.708 25.1202 27.624 25.3842 27.624C25.5762 27.624 25.7982 27.72 26.0502 27.912C26.2902 28.068 26.5422 28.2 26.8062 28.308C27.0822 28.416 27.3642 28.47 27.6522 28.47C28.2762 28.47 28.8162 28.356 29.2722 28.128C29.7282 27.9 30.0762 27.582 30.3162 27.174C30.5682 26.754 30.6942 26.268 30.6942 25.716C30.6942 25.2 30.5802 24.762 30.3522 24.402C30.1242 24.03 29.8122 23.742 29.4162 23.538C29.0322 23.334 28.6002 23.232 28.1202 23.232C27.7242 23.232 27.3762 23.298 27.0762 23.43C26.7762 23.55 26.5062 23.676 26.2662 23.808C26.0262 23.928 25.8042 23.988 25.6002 23.988C25.2882 23.988 25.0542 23.922 24.8982 23.79C24.7422 23.646 24.6402 23.478 24.5922 23.286C24.5562 23.082 24.5502 22.896 24.5742 22.728L25.2042 18.21C25.2402 18.006 25.3362 17.838 25.4922 17.706C25.6602 17.562 25.8642 17.49 26.1042 17.49H31.3782C31.6182 17.49 31.8162 17.574 31.9722 17.742C32.1402 17.898 32.2242 18.096 32.2242 18.336C32.2242 18.576 32.1402 18.774 31.9722 18.93C31.8162 19.086 31.6182 19.164 31.3782 19.164H26.5542L26.7522 19.002L26.1762 22.872L25.9062 22.332C26.0142 22.212 26.1942 22.098 26.4462 21.99C26.7102 21.87 27.0042 21.774 27.3282 21.702C27.6642 21.618 28.0002 21.576 28.3362 21.576C29.1282 21.576 29.8362 21.756 30.4602 22.116C31.0962 22.464 31.5942 22.95 31.9542 23.574C32.3142 24.198 32.4942 24.906 32.4942 25.698C32.4942 26.586 32.2962 27.366 31.9002 28.038C31.5042 28.698 30.9462 29.214 30.2262 29.586C29.5062 29.946 28.6542 30.126 27.6702 30.126Z" fill="black"/>
</svg>
