<svg width="48" height="48" viewBox="0 0 48 48" fill="none" xmlns="http://www.w3.org/2000/svg">
<circle cx="24" cy="24" r="24" fill="#F1C232"/>
<path d="M21.5275 28.236C21.7795 28.236 21.9895 28.32 22.1575 28.488C22.3375 28.656 22.4275 28.866 22.4275 29.118C22.4275 29.37 22.3375 29.58 22.1575 29.748C21.9895 29.916 21.7795 30 21.5275 30H15.4795C15.2155 30 14.9935 29.916 14.8135 29.748C14.6455 29.568 14.5615 29.346 14.5615 29.082V18.318C14.5615 18.054 14.6515 17.838 14.8315 17.67C15.0115 17.49 15.2455 17.4 15.5335 17.4C15.7735 17.4 15.9835 17.49 16.1635 17.67C16.3555 17.838 16.4515 18.054 16.4515 18.318V28.542L16.0735 28.236H21.5275ZM28.1832 30.18C27.5112 30.18 26.9112 30.048 26.3832 29.784C25.8672 29.52 25.4292 29.16 25.0692 28.704C24.7212 28.248 24.4512 27.738 24.2592 27.174C24.0792 26.598 23.9892 26.01 23.9892 25.41C23.9892 24.942 24.0432 24.408 24.1512 23.808C24.2592 23.196 24.4392 22.566 24.6912 21.918C24.9432 21.258 25.2732 20.628 25.6812 20.028C26.1012 19.428 26.6172 18.888 27.2292 18.408C27.8532 17.916 28.5912 17.544 29.4432 17.292C29.5632 17.256 29.6772 17.238 29.7852 17.238C30.0252 17.238 30.2352 17.304 30.4152 17.436C30.6072 17.556 30.7032 17.778 30.7032 18.102C30.7032 18.318 30.6312 18.51 30.4872 18.678C30.3432 18.834 30.1512 18.948 29.9112 19.02C29.4792 19.164 29.0472 19.38 28.6152 19.668C28.1832 19.956 27.7812 20.298 27.4092 20.694C27.0372 21.09 26.7192 21.534 26.4552 22.026C26.2032 22.506 26.0172 23.01 25.8972 23.538L25.4472 23.61C25.6272 23.334 25.8552 23.07 26.1312 22.818C26.4192 22.554 26.7552 22.338 27.1392 22.17C27.5232 21.99 27.9612 21.9 28.4532 21.9C28.9452 21.9 29.4192 22.008 29.8752 22.224C30.3312 22.44 30.7392 22.74 31.0992 23.124C31.4712 23.508 31.7592 23.952 31.9632 24.456C32.1792 24.96 32.2872 25.494 32.2872 26.058C32.2872 26.802 32.1012 27.492 31.7292 28.128C31.3692 28.752 30.8772 29.25 30.2532 29.622C29.6412 29.994 28.9512 30.18 28.1832 30.18ZM28.1652 28.506C28.6092 28.506 29.0052 28.404 29.3532 28.2C29.7012 27.984 29.9772 27.69 30.1812 27.318C30.3852 26.946 30.4872 26.526 30.4872 26.058C30.4872 25.59 30.3912 25.17 30.1992 24.798C30.0072 24.426 29.7372 24.126 29.3892 23.898C29.0532 23.67 28.6572 23.556 28.2012 23.556C27.7332 23.556 27.3192 23.67 26.9592 23.898C26.5992 24.126 26.3172 24.432 26.1132 24.816C25.9092 25.188 25.8072 25.608 25.8072 26.076C25.8072 26.508 25.9092 26.916 26.1132 27.3C26.3172 27.672 26.5932 27.966 26.9412 28.182C27.3012 28.398 27.7092 28.506 28.1652 28.506Z" fill="black"/>
</svg>
