<svg width="48" height="48" viewBox="0 0 48 48" fill="none" xmlns="http://www.w3.org/2000/svg">
<circle cx="24" cy="24" r="23" fill="#F8F8F8" stroke="#F1C232" stroke-width="2"/>
<path d="M21.8335 15.3333C21.8335 14.735 22.3185 14.25 22.9168 14.25H25.0835C25.6818 14.25 26.1668 14.735 26.1668 15.3333V17.5C26.1668 18.0983 25.6818 18.5833 25.0835 18.5833H22.9168C22.3185 18.5833 21.8335 18.0983 21.8335 17.5V15.3333Z" stroke="black" stroke-width="1.5"/>
<path d="M15.3335 28.3333V27.25C15.3335 26.0534 16.3035 25.0833 17.5002 25.0833H30.5002C31.6968 25.0833 32.6668 26.0534 32.6668 27.25V28.3333" stroke="black" stroke-width="1.5" stroke-linecap="round"/>
<path d="M24 21.8333V28.3333" stroke="black" stroke-width="1.5" stroke-linecap="round"/>
<path d="M16.4167 32.6667C16.4167 33.265 15.9316 33.75 15.3333 33.75C14.735 33.75 14.25 33.265 14.25 32.6667C14.25 32.0683 14.735 31.5833 15.3333 31.5833C15.9316 31.5833 16.4167 32.0683 16.4167 32.6667Z" stroke="black" stroke-width="1.5"/>
<path d="M25.0832 32.6667C25.0832 33.265 24.5982 33.75 23.9998 33.75C23.4015 33.75 22.9165 33.265 22.9165 32.6667C22.9165 32.0683 23.4015 31.5833 23.9998 31.5833C24.5982 31.5833 25.0832 32.0683 25.0832 32.6667Z" stroke="black" stroke-width="1.5"/>
<path d="M33.7502 32.6667C33.7502 33.265 33.2652 33.75 32.6668 33.75C32.0685 33.75 31.5835 33.265 31.5835 32.6667C31.5835 32.0683 32.0685 31.5833 32.6668 31.5833C33.2652 31.5833 33.7502 32.0683 33.7502 32.6667Z" stroke="black" stroke-width="1.5"/>
</svg>
