<svg width="48" height="48" viewBox="0 0 48 48" fill="none" xmlns="http://www.w3.org/2000/svg">
<circle cx="24" cy="24" r="23" fill="#F8F8F8" stroke="#F1C232" stroke-width="2"/>
<path d="M22.5451 29.236C22.7971 29.236 23.0071 29.32 23.1751 29.488C23.3551 29.656 23.4451 29.866 23.4451 30.118C23.4451 30.37 23.3551 30.58 23.1751 30.748C23.0071 30.916 22.7971 31 22.5451 31H16.4971C16.2331 31 16.0111 30.916 15.8311 30.748C15.6631 30.568 15.5791 30.346 15.5791 30.082V19.318C15.5791 19.054 15.6691 18.838 15.8491 18.67C16.0291 18.49 16.2631 18.4 16.5511 18.4C16.7911 18.4 17.0011 18.49 17.1811 18.67C17.3731 18.838 17.4691 19.054 17.4691 19.318V29.542L17.0911 29.236H22.5451ZM32.4047 29.326C32.6447 29.326 32.8427 29.41 32.9987 29.578C33.1667 29.734 33.2507 29.932 33.2507 30.172C33.2507 30.412 33.1667 30.61 32.9987 30.766C32.8427 30.922 32.6447 31 32.4047 31H26.0867C25.8227 31 25.6127 30.922 25.4567 30.766C25.3007 30.61 25.2227 30.4 25.2227 30.136C25.2227 29.896 25.3067 29.68 25.4747 29.488L29.4887 25.15C29.9927 24.61 30.3887 24.082 30.6767 23.566C30.9647 23.05 31.1087 22.558 31.1087 22.09C31.1087 21.658 31.0127 21.28 30.8207 20.956C30.6287 20.62 30.3647 20.356 30.0287 20.164C29.6927 19.972 29.3147 19.876 28.8947 19.876C28.4867 19.876 28.0787 20.002 27.6707 20.254C27.2747 20.494 26.9447 20.842 26.6807 21.298C26.5727 21.454 26.4587 21.562 26.3387 21.622C26.2187 21.67 26.0987 21.694 25.9787 21.694C25.7627 21.694 25.5587 21.616 25.3667 21.46C25.1747 21.292 25.0787 21.1 25.0787 20.884C25.0787 20.716 25.1327 20.554 25.2407 20.398C25.3487 20.242 25.4867 20.08 25.6547 19.912C26.0627 19.384 26.5727 18.97 27.1847 18.67C27.7967 18.37 28.4027 18.22 29.0027 18.22C29.8307 18.22 30.5327 18.382 31.1087 18.706C31.6967 19.03 32.1467 19.48 32.4587 20.056C32.7827 20.62 32.9447 21.268 32.9447 22C32.9447 22.48 32.8547 22.972 32.6747 23.476C32.4947 23.968 32.2427 24.466 31.9187 24.97C31.5947 25.462 31.1987 25.96 30.7307 26.464L27.9407 29.506L27.7427 29.326H32.4047Z" fill="black"/>
</svg>
