<svg width="48" height="48" viewBox="0 0 48 48" fill="none" xmlns="http://www.w3.org/2000/svg">
<circle cx="24" cy="24" r="23" fill="#F8F8F8" stroke="#F1C232" stroke-width="2"/>
<path d="M22.7648 29.236C23.0168 29.236 23.2268 29.32 23.3948 29.488C23.5748 29.656 23.6648 29.866 23.6648 30.118C23.6648 30.37 23.5748 30.58 23.3948 30.748C23.2268 30.916 23.0168 31 22.7648 31H16.7168C16.4528 31 16.2308 30.916 16.0508 30.748C15.8828 30.568 15.7988 30.346 15.7988 30.082V19.318C15.7988 19.054 15.8888 18.838 16.0688 18.67C16.2488 18.49 16.4828 18.4 16.7708 18.4C17.0108 18.4 17.2208 18.49 17.4008 18.67C17.5928 18.838 17.6888 19.054 17.6888 19.318V29.542L17.3108 29.236H22.7648ZM26.0185 28.696C26.1145 28.696 26.2105 28.714 26.3065 28.75C26.4145 28.774 26.5405 28.834 26.6845 28.93C26.9005 29.122 27.1585 29.284 27.4585 29.416C27.7705 29.536 28.1245 29.596 28.5205 29.596C28.9645 29.596 29.3725 29.494 29.7445 29.29C30.1285 29.074 30.4405 28.774 30.6805 28.39C30.9205 28.006 31.0405 27.55 31.0405 27.022C31.0405 26.482 30.9265 26.044 30.6985 25.708C30.4825 25.36 30.1885 25.102 29.8165 24.934C29.4565 24.754 29.0785 24.664 28.6825 24.664C28.4665 24.664 28.2805 24.688 28.1245 24.736C27.9685 24.772 27.8185 24.814 27.6745 24.862C27.5305 24.898 27.3745 24.916 27.2065 24.916C26.9665 24.916 26.7805 24.838 26.6485 24.682C26.5285 24.514 26.4685 24.316 26.4685 24.088C26.4685 23.944 26.4925 23.818 26.5405 23.71C26.6005 23.602 26.6845 23.488 26.7925 23.368L30.1225 19.696L30.5185 20.056H25.7485C25.5085 20.056 25.3045 19.978 25.1365 19.822C24.9805 19.654 24.9025 19.45 24.9025 19.21C24.9025 18.982 24.9805 18.79 25.1365 18.634C25.3045 18.478 25.5085 18.4 25.7485 18.4H31.4365C31.7605 18.4 31.9945 18.49 32.1385 18.67C32.2945 18.85 32.3725 19.06 32.3725 19.3C32.3725 19.432 32.3365 19.558 32.2645 19.678C32.2045 19.798 32.1205 19.912 32.0125 20.02L28.6825 23.71L28.2145 23.224C28.3225 23.176 28.4845 23.128 28.7005 23.08C28.9285 23.032 29.1145 23.008 29.2585 23.008C29.9545 23.008 30.5725 23.182 31.1125 23.53C31.6525 23.878 32.0785 24.346 32.3905 24.934C32.7025 25.51 32.8585 26.164 32.8585 26.896C32.8585 27.772 32.6605 28.534 32.2645 29.182C31.8685 29.818 31.3165 30.31 30.6085 30.658C29.9125 31.006 29.1085 31.18 28.1965 31.18C27.7285 31.18 27.2725 31.12 26.8285 31C26.3845 30.868 25.9945 30.682 25.6585 30.442C25.4545 30.322 25.3165 30.196 25.2445 30.064C25.1725 29.92 25.1365 29.782 25.1365 29.65C25.1365 29.422 25.2205 29.206 25.3885 29.002C25.5565 28.798 25.7665 28.696 26.0185 28.696Z" fill="black"/>
</svg>
