<svg xmlns="http://www.w3.org/2000/svg" xmlns:xlink="http://www.w3.org/1999/xlink" width="1366" zoomAndPan="magnify" viewBox="0 0 1024.5 576" height="768" preserveAspectRatio="xMidYMid meet" version="1.0"><defs><clipPath id="4eda8878fa"><path d="M 891.976562 244.460938 L 979.054688 244.460938 L 979.054688 331.539062 L 891.976562 331.539062 Z M 891.976562 244.460938 " clip-rule="nonzero"/></clipPath><clipPath id="fff1f6116b"><path d="M 935.515625 244.460938 C 911.472656 244.460938 891.976562 263.953125 891.976562 288 C 891.976562 312.046875 911.472656 331.539062 935.515625 331.539062 C 959.5625 331.539062 979.054688 312.046875 979.054688 288 C 979.054688 263.953125 959.5625 244.460938 935.515625 244.460938 Z M 935.515625 244.460938 " clip-rule="nonzero"/></clipPath></defs><path stroke-linecap="butt" transform="matrix(0.749634, 0, 0, 0.749634, -77.095352, 279.379216)" fill="none" stroke-linejoin="miter" d="M 86.252547 11.499989 L 1305.795413 11.499989 " stroke="#000000" stroke-width="23" stroke-opacity="1" stroke-miterlimit="4"/><path stroke-linecap="round" transform="matrix(0.749634, 0, 0, 0.749634, -77.095352, 279.379216)" fill-opacity="1" fill="#000000" fill-rule="nonzero" stroke-linejoin="round" d="M 1380.545422 11.499989 C 1380.545422 30.556161 1365.095176 46.001196 1346.044215 46.001196 C 1326.988044 46.001196 1311.543009 30.556161 1311.543009 11.499989 C 1311.543009 -7.556182 1326.988044 -23.001217 1346.044215 -23.001217 C 1365.095176 -23.001217 1380.545422 -7.556182 1380.545422 11.499989 " stroke="#000000" stroke-width="23" stroke-opacity="1" stroke-miterlimit="4"/><g clip-path="url(#4eda8878fa)"><g clip-path="url(#fff1f6116b)"><path fill="#bc1823" d="M 891.976562 244.460938 L 979.054688 244.460938 L 979.054688 331.539062 L 891.976562 331.539062 Z M 891.976562 244.460938 " fill-opacity="1" fill-rule="nonzero"/></g></g></svg>