<svg xmlns="http://www.w3.org/2000/svg" xmlns:xlink="http://www.w3.org/1999/xlink" width="48" zoomAndPan="magnify" viewBox="0 0 36 36.000001" height="48" preserveAspectRatio="xMidYMid meet" version="1.0"><defs><clipPath id="98ccab3ff5"><path d="M 0.488281 0 L 35.511719 0 L 35.511719 35.027344 L 0.488281 35.027344 Z M 0.488281 0 " clip-rule="nonzero"/></clipPath></defs><g clip-path="url(#98ccab3ff5)"><path fill="#24577b" d="M 35.511719 19.265625 L 35.511719 29.773438 C 35.511719 32.671875 33.15625 35.027344 30.257812 35.027344 L 5.742188 35.027344 C 2.84375 35.027344 0.488281 32.671875 0.488281 29.773438 L 0.488281 5.253906 C 0.488281 2.355469 2.84375 0 5.742188 0 L 16.25 0 C 17.214844 0 18 0.785156 18 1.75 C 18 2.71875 17.214844 3.503906 16.25 3.503906 L 5.742188 3.503906 C 4.773438 3.503906 3.988281 4.289062 3.988281 5.253906 L 3.988281 29.773438 C 3.988281 30.738281 4.773438 31.523438 5.742188 31.523438 L 30.257812 31.523438 C 31.226562 31.523438 32.011719 30.738281 32.011719 29.773438 L 32.011719 19.265625 C 32.011719 18.296875 32.792969 17.511719 33.761719 17.511719 C 34.730469 17.511719 35.511719 18.296875 35.511719 19.265625 Z M 33.761719 0 L 23.253906 0 C 22.285156 0 21.503906 0.785156 21.503906 1.75 C 21.503906 2.71875 22.285156 3.503906 23.253906 3.503906 L 29.535156 3.503906 L 16.761719 16.273438 C 16.078125 16.960938 16.078125 18.066406 16.761719 18.75 C 17.105469 19.09375 17.550781 19.265625 18 19.265625 C 18.449219 19.265625 18.894531 19.09375 19.238281 18.75 L 32.011719 5.980469 L 32.011719 12.257812 C 32.011719 13.226562 32.792969 14.011719 33.761719 14.011719 C 34.730469 14.011719 35.511719 13.226562 35.511719 12.257812 L 35.511719 1.75 C 35.511719 0.785156 34.730469 0 33.761719 0 Z M 33.761719 0 " fill-opacity="1" fill-rule="nonzero"/></g></svg>