<svg xmlns="http://www.w3.org/2000/svg" xmlns:xlink="http://www.w3.org/1999/xlink" width="48" zoomAndPan="magnify" viewBox="0 0 36 36.000001" height="48" preserveAspectRatio="xMidYMid meet" version="1.0"><defs><clipPath id="3424ce3449"><path d="M 0.488281 0 L 35.511719 0 L 35.511719 35.027344 L 0.488281 35.027344 Z M 0.488281 0 " clip-rule="nonzero"/></clipPath><clipPath id="9cb400b192"><path d="M 18 0 C 8.328125 0 0.488281 7.839844 0.488281 17.511719 C 0.488281 27.1875 8.328125 35.027344 18 35.027344 C 27.671875 35.027344 35.511719 27.1875 35.511719 17.511719 C 35.511719 7.839844 27.671875 0 18 0 Z M 18 0 " clip-rule="nonzero"/></clipPath><clipPath id="99873709b4"><path d="M 4.136719 3.648438 L 31.863281 3.648438 L 31.863281 31.378906 L 4.136719 31.378906 Z M 4.136719 3.648438 " clip-rule="nonzero"/></clipPath></defs><g clip-path="url(#3424ce3449)"><g clip-path="url(#9cb400b192)"><path fill="#ffd230" d="M 0.488281 0 L 35.511719 0 L 35.511719 35.027344 L 0.488281 35.027344 Z M 0.488281 0 " fill-opacity="1" fill-rule="nonzero"/></g></g><g clip-path="url(#99873709b4)"><path fill="#000000" d="M 18 3.648438 C 10.351562 3.648438 4.136719 9.863281 4.136719 17.511719 C 4.136719 25.164062 10.351562 31.378906 18 31.378906 C 25.648438 31.378906 31.863281 25.164062 31.863281 17.511719 C 31.863281 9.898438 25.699219 3.710938 18.097656 3.65625 C 18.066406 3.652344 18.03125 3.648438 18 3.648438 Z M 18 4.855469 C 24.996094 4.855469 30.660156 10.515625 30.660156 17.511719 C 30.660156 24.511719 24.996094 30.171875 18 30.171875 C 11.003906 30.171875 5.339844 24.511719 5.339844 17.511719 C 5.339844 10.515625 11.003906 4.855469 18 4.855469 Z M 13.175781 13.292969 C 12.9375 13.292969 12.707031 13.339844 12.484375 13.429688 C 12.265625 13.523438 12.066406 13.652344 11.898438 13.824219 C 11.730469 13.992188 11.597656 14.1875 11.507812 14.410156 C 11.414062 14.632812 11.367188 14.863281 11.367188 15.101562 C 11.367188 15.34375 11.414062 15.574219 11.507812 15.792969 C 11.597656 16.015625 11.730469 16.210938 11.898438 16.382812 C 12.066406 16.550781 12.265625 16.679688 12.484375 16.773438 C 12.707031 16.863281 12.9375 16.910156 13.175781 16.910156 C 13.417969 16.910156 13.648438 16.863281 13.871094 16.773438 C 14.089844 16.679688 14.285156 16.550781 14.457031 16.382812 C 14.625 16.210938 14.757812 16.015625 14.847656 15.792969 C 14.941406 15.574219 14.984375 15.34375 14.984375 15.101562 C 14.984375 14.863281 14.941406 14.632812 14.847656 14.410156 C 14.757812 14.1875 14.625 13.992188 14.457031 13.824219 C 14.285156 13.652344 14.089844 13.523438 13.871094 13.429688 C 13.648438 13.339844 13.417969 13.292969 13.175781 13.292969 Z M 22.824219 13.292969 C 22.582031 13.292969 22.351562 13.339844 22.128906 13.429688 C 21.910156 13.523438 21.714844 13.652344 21.542969 13.824219 C 21.375 13.992188 21.242188 14.1875 21.152344 14.410156 C 21.058594 14.632812 21.015625 14.863281 21.015625 15.101562 C 21.015625 15.34375 21.058594 15.574219 21.152344 15.792969 C 21.242188 16.015625 21.375 16.210938 21.542969 16.382812 C 21.714844 16.550781 21.910156 16.679688 22.128906 16.773438 C 22.351562 16.863281 22.582031 16.910156 22.824219 16.910156 C 23.0625 16.910156 23.292969 16.863281 23.515625 16.773438 C 23.734375 16.679688 23.933594 16.550781 24.101562 16.382812 C 24.269531 16.210938 24.402344 16.015625 24.492188 15.792969 C 24.585938 15.574219 24.632812 15.34375 24.632812 15.101562 C 24.632812 14.863281 24.585938 14.632812 24.492188 14.410156 C 24.402344 14.1875 24.269531 13.992188 24.101562 13.824219 C 23.933594 13.652344 23.734375 13.523438 23.515625 13.429688 C 23.292969 13.339844 23.0625 13.292969 22.824219 13.292969 Z M 11.972656 21.128906 C 11.804688 21.128906 11.660156 21.1875 11.539062 21.304688 C 11.421875 21.421875 11.359375 21.566406 11.359375 21.734375 C 11.359375 21.902344 11.421875 22.042969 11.539062 22.164062 C 11.660156 22.28125 11.804688 22.339844 11.972656 22.335938 L 24.027344 22.335938 C 24.195312 22.339844 24.339844 22.28125 24.460938 22.164062 C 24.578125 22.042969 24.640625 21.902344 24.640625 21.734375 C 24.640625 21.566406 24.578125 21.421875 24.460938 21.304688 C 24.339844 21.1875 24.195312 21.128906 24.027344 21.128906 Z M 11.972656 21.128906 " fill-opacity="1" fill-rule="nonzero"/></g></svg>