<svg width="34" height="34" viewBox="0 0 34 34" fill="none" xmlns="http://www.w3.org/2000/svg">
<path fill-rule="evenodd" clip-rule="evenodd" d="M0.666992 16.9995C0.666992 7.97885 7.97966 0.666168 17.0003 0.666168C26.021 0.666168 33.3337 7.97885 33.3337 16.9995C33.3337 26.0202 26.021 33.3328 17.0003 33.3328C7.97966 33.3328 0.666992 26.0202 0.666992 16.9995ZM18.3337 10.3325C18.3337 9.59612 17.7368 8.99917 17.0003 8.99917C16.264 8.99917 15.667 9.59612 15.667 10.3325V15.6658H10.3337C9.59736 15.6658 9.00039 16.2628 9.00039 16.9992C9.00039 17.7355 9.59736 18.3325 10.3337 18.3325H15.667V23.6658C15.667 24.4022 16.264 24.9992 17.0003 24.9992C17.7368 24.9992 18.3337 24.4022 18.3337 23.6658V18.3325H23.667C24.4035 18.3325 25.0003 17.7355 25.0003 16.9992C25.0003 16.2628 24.4035 15.6658 23.667 15.6658H18.3337V10.3325Z" fill="white"/>
</svg>
