<svg xmlns="http://www.w3.org/2000/svg" xmlns:xlink="http://www.w3.org/1999/xlink" width="64" zoomAndPan="magnify" viewBox="0 0 48 48" height="64" preserveAspectRatio="xMidYMid meet" version="1.0"><defs><clipPath id="bc6b557b40"><path d="M 0.488281 0 L 47.507812 0 L 47.507812 47.019531 L 0.488281 47.019531 Z M 0.488281 0 " clip-rule="nonzero"/></clipPath><clipPath id="2b559f695d"><path d="M 24 0 C 11.015625 0 0.488281 10.527344 0.488281 23.511719 C 0.488281 36.496094 11.015625 47.019531 24 47.019531 C 36.984375 47.019531 47.511719 36.496094 47.511719 23.511719 C 47.511719 10.527344 36.984375 0 24 0 Z M 24 0 " clip-rule="nonzero"/></clipPath><clipPath id="c358e74dee"><path d="M 7.875 7.382812 L 40.199219 7.382812 L 40.199219 39.710938 L 7.875 39.710938 Z M 7.875 7.382812 " clip-rule="nonzero"/></clipPath><clipPath id="94c9829186"><path d="M 18.546875 15.328125 L 29.566406 15.328125 L 29.566406 31.488281 L 18.546875 31.488281 Z M 18.546875 15.328125 " clip-rule="nonzero"/></clipPath></defs><g clip-path="url(#bc6b557b40)"><g clip-path="url(#2b559f695d)"><path fill="#f1c232" d="M 0.488281 0 L 47.511719 0 L 47.511719 47.019531 L 0.488281 47.019531 Z M 0.488281 0 " fill-opacity="1" fill-rule="nonzero"/></g></g><g clip-path="url(#c358e74dee)"><path fill="#ffffff" d="M 23.996094 7.382812 C 28.449219 7.382812 32.476562 9.1875 35.394531 12.105469 C 38.3125 15.023438 40.117188 19.054688 40.117188 23.503906 C 40.117188 27.957031 38.3125 31.988281 35.394531 34.90625 C 32.476562 37.824219 28.449219 39.628906 23.996094 39.628906 C 19.542969 39.628906 15.511719 37.824219 12.59375 34.90625 C 9.679688 31.988281 7.875 27.957031 7.875 23.503906 C 7.875 19.054688 9.679688 15.023438 12.59375 12.105469 C 15.511719 9.1875 19.542969 7.382812 23.996094 7.382812 Z M 34.128906 13.371094 C 31.535156 10.777344 27.953125 9.175781 23.996094 9.175781 C 20.039062 9.175781 16.457031 10.777344 13.863281 13.371094 C 11.269531 15.964844 9.664062 19.546875 9.664062 23.503906 C 9.664062 27.460938 11.269531 31.046875 13.863281 33.640625 C 16.457031 36.230469 20.039062 37.835938 23.996094 37.835938 C 27.953125 37.835938 31.535156 36.230469 34.128906 33.640625 C 36.722656 31.046875 38.324219 27.460938 38.324219 23.503906 C 38.324219 19.546875 36.722656 15.964844 34.128906 13.371094 " fill-opacity="1" fill-rule="nonzero"/></g><g clip-path="url(#94c9829186)"><path fill="#ffffff" d="M 24.089844 15.328125 C 20.710938 15.328125 18.792969 17.21875 18.738281 19.960938 L 18.738281 20.097656 L 21.722656 20.097656 L 21.722656 19.960938 C 21.789062 18.75 22.625 17.96875 23.890625 17.96875 C 25.148438 17.96875 25.984375 18.695312 25.984375 19.71875 C 25.984375 20.742188 25.554688 21.269531 24.132812 22.117188 C 22.613281 23.011719 22.007812 24 22.152344 25.761719 L 22.167969 26.230469 L 25.089844 26.230469 L 25.089844 25.785156 C 25.089844 24.730469 25.5 24.1875 26.964844 23.339844 C 28.515625 22.425781 29.316406 21.273438 29.316406 19.621094 C 29.316406 17.078125 27.238281 15.328125 24.089844 15.328125 Z M 23.695312 28.277344 C 22.574219 28.277344 21.875 28.925781 21.875 29.988281 C 21.875 31.035156 22.574219 31.683594 23.695312 31.683594 C 24.8125 31.683594 25.503906 31.035156 25.503906 29.988281 C 25.503906 28.925781 24.8125 28.277344 23.695312 28.277344 Z M 23.695312 28.277344 " fill-opacity="1" fill-rule="nonzero"/></g></svg>