<svg xmlns="http://www.w3.org/2000/svg" xmlns:xlink="http://www.w3.org/1999/xlink" width="48" zoomAndPan="magnify" viewBox="0 0 36 36.000001" height="48" preserveAspectRatio="xMidYMid meet" version="1.0"><defs><clipPath id="cd89c78d12"><path d="M 0.488281 0 L 35.511719 0 L 35.511719 35.027344 L 0.488281 35.027344 Z M 0.488281 0 " clip-rule="nonzero"/></clipPath><clipPath id="e74604006a"><path d="M 11 7.003906 L 24.863281 7.003906 L 24.863281 28.167969 L 11 28.167969 Z M 11 7.003906 " clip-rule="nonzero"/></clipPath></defs><g clip-path="url(#cd89c78d12)"><path fill="#ffffff" d="M 0.488281 0 L 35.511719 0 L 35.511719 35.027344 L 0.488281 35.027344 Z M 0.488281 0 " fill-opacity="1" fill-rule="nonzero"/><path fill="#ffffff" d="M 0.488281 0 L 35.511719 0 L 35.511719 35.027344 L 0.488281 35.027344 Z M 0.488281 0 " fill-opacity="1" fill-rule="nonzero"/><path fill="#8d8f84" d="M 18 35.027344 C 8.324219 35.027344 0.488281 27.136719 0.488281 17.511719 C 0.488281 7.890625 8.324219 0 18 0 C 27.675781 0 35.511719 7.835938 35.511719 17.511719 C 35.511719 27.1875 27.621094 35.027344 18 35.027344 Z M 18 1.082031 C 8.917969 1.082031 1.566406 8.433594 1.566406 17.511719 C 1.566406 26.59375 8.917969 33.945312 18 33.945312 C 27.082031 33.945312 34.433594 26.59375 34.433594 17.511719 C 34.433594 8.433594 27.027344 1.082031 18 1.082031 Z M 18 1.082031 " fill-opacity="1" fill-rule="nonzero"/></g><g clip-path="url(#e74604006a)"><path fill="#8d8f84" d="M 18.121094 7.003906 C 13.78125 7.003906 11.320312 9.4375 11.25 12.957031 L 11.25 13.132812 L 15.082031 13.132812 L 15.082031 12.957031 C 15.164062 11.402344 16.242188 10.398438 17.867188 10.398438 C 19.480469 10.398438 20.554688 11.332031 20.554688 12.648438 C 20.554688 13.960938 20.003906 14.640625 18.179688 15.730469 C 16.226562 16.875 15.449219 18.148438 15.632812 20.410156 L 15.65625 21.015625 L 19.410156 21.015625 L 19.410156 20.441406 C 19.410156 19.082031 19.933594 18.386719 21.8125 17.300781 C 23.804688 16.125 24.839844 14.640625 24.839844 12.519531 C 24.839844 9.253906 22.167969 7.003906 18.121094 7.003906 Z M 17.613281 23.640625 C 16.175781 23.640625 15.277344 24.476562 15.277344 25.835938 C 15.277344 27.1875 16.175781 28.019531 17.613281 28.019531 C 19.050781 28.019531 19.9375 27.1875 19.9375 25.835938 C 19.9375 24.476562 19.050781 23.640625 17.613281 23.640625 Z M 17.613281 23.640625 " fill-opacity="1" fill-rule="nonzero"/></g></svg>