<svg xmlns="http://www.w3.org/2000/svg" xmlns:xlink="http://www.w3.org/1999/xlink" width="48" zoomAndPan="magnify" viewBox="0 0 36 36.000001" height="48" preserveAspectRatio="xMidYMid meet" version="1.0"><defs><clipPath id="ca6c12f098"><path d="M 0.488281 0 L 35.511719 0 L 35.511719 35.027344 L 0.488281 35.027344 Z M 0.488281 0 " clip-rule="nonzero"/></clipPath><clipPath id="c43214738b"><path d="M 11.59375 7.898438 L 24.726562 7.898438 L 24.726562 26.871094 L 11.59375 26.871094 Z M 11.59375 7.898438 " clip-rule="nonzero"/></clipPath></defs><g clip-path="url(#ca6c12f098)"><path fill="#b6b6b6" d="M 18 0 C 8.335938 0 0.488281 7.851562 0.488281 17.511719 C 0.488281 27.175781 8.335938 35.027344 18 35.027344 C 27.664062 35.027344 35.511719 27.175781 35.511719 17.511719 C 35.511719 7.851562 27.664062 0 18 0 Z M 18 0.761719 C 27.261719 0.761719 34.753906 8.25 34.753906 17.511719 C 34.753906 26.773438 27.261719 34.265625 18 34.265625 C 8.738281 34.265625 1.246094 26.773438 1.246094 17.511719 C 1.246094 8.25 8.738281 0.761719 18 0.761719 Z M 18 0.761719 " fill-opacity="1" fill-rule="nonzero"/></g><g clip-path="url(#c43214738b)"><path fill="#b6b6b6" d="M 18.109375 7.898438 C 14.136719 7.898438 11.882812 10.121094 11.820312 13.34375 L 11.820312 13.503906 L 15.324219 13.503906 L 15.324219 13.34375 C 15.402344 11.921875 16.386719 11.003906 17.875 11.003906 C 19.347656 11.003906 20.332031 11.855469 20.332031 13.058594 C 20.332031 14.261719 19.828125 14.882812 18.160156 15.878906 C 16.375 16.925781 15.660156 18.089844 15.828125 20.160156 L 15.851562 20.714844 L 19.285156 20.714844 L 19.285156 20.1875 C 19.285156 18.945312 19.761719 18.3125 21.484375 17.316406 C 23.308594 16.242188 24.25 14.882812 24.25 12.941406 C 24.25 9.953125 21.808594 7.898438 18.109375 7.898438 Z M 17.640625 23.117188 C 16.324219 23.117188 15.503906 23.878906 15.503906 25.125 C 15.503906 26.359375 16.328125 27.121094 17.640625 27.121094 C 18.957031 27.121094 19.765625 26.359375 19.765625 25.125 C 19.765625 23.878906 18.957031 23.117188 17.640625 23.117188 Z M 17.640625 23.117188 " fill-opacity="1" fill-rule="nonzero"/></g></svg>