<svg xmlns="http://www.w3.org/2000/svg" xmlns:xlink="http://www.w3.org/1999/xlink" width="48" zoomAndPan="magnify" viewBox="0 0 36 36.000001" height="48" preserveAspectRatio="xMidYMid meet" version="1.0"><defs><clipPath id="539174cb85"><path d="M 0.488281 0 L 35.511719 0 L 35.511719 35.027344 L 0.488281 35.027344 Z M 0.488281 0 " clip-rule="nonzero"/></clipPath></defs><g clip-path="url(#539174cb85)"><path fill="#ffffff" d="M 0.488281 0 L 35.511719 0 L 35.511719 35.027344 L 0.488281 35.027344 Z M 0.488281 0 " fill-opacity="1" fill-rule="nonzero"/><path fill="#ffffff" d="M 0.488281 0 L 35.511719 0 L 35.511719 35.027344 L 0.488281 35.027344 Z M 0.488281 0 " fill-opacity="1" fill-rule="nonzero"/><path fill="#b6b6b6" d="M 18 35.027344 C 8.339844 35.027344 0.488281 27.171875 0.488281 17.511719 C 0.488281 7.855469 8.339844 0 18 0 C 27.660156 0 35.511719 7.855469 35.511719 17.511719 C 35.511719 27.171875 27.660156 35.027344 18 35.027344 Z M 18 3.121094 C 10.0625 3.121094 3.605469 9.578125 3.605469 17.511719 C 3.605469 25.449219 10.0625 31.90625 18 31.90625 C 25.9375 31.90625 32.394531 25.449219 32.394531 17.511719 C 32.394531 9.578125 25.9375 3.121094 18 3.121094 Z M 18 3.121094 " fill-opacity="1" fill-rule="nonzero"/></g><path fill="#b6b6b6" d="M 17.554688 8.886719 L 12.839844 8.886719 L 20.742188 17.511719 L 12.839844 26.140625 L 17.554688 26.140625 L 25.457031 17.511719 Z M 17.554688 8.886719 " fill-opacity="1" fill-rule="nonzero"/></svg>