<svg width="30" height="30" viewBox="0 0 30 30" fill="none" xmlns="http://www.w3.org/2000/svg">
<path d="M12.5 5C12.5 4.30965 13.0596 3.75 13.75 3.75H16.25C16.9404 3.75 17.5 4.30965 17.5 5V7.5C17.5 8.19035 16.9404 8.75 16.25 8.75H13.75C13.0596 8.75 12.5 8.19035 12.5 7.5V5Z" stroke="#005F73" stroke-width="1.6"/>
<path d="M5 20V18.75C5 17.3693 6.11929 16.25 7.5 16.25H22.5C23.8807 16.25 25 17.3693 25 18.75V20" stroke="#005F73" stroke-width="1.6" stroke-linecap="round"/>
<path d="M15 12.5V20" stroke="#005F73" stroke-width="1.6" stroke-linecap="round"/>
<path d="M6.25 25C6.25 25.6904 5.69035 26.25 5 26.25C4.30965 26.25 3.75 25.6904 3.75 25C3.75 24.3096 4.30965 23.75 5 23.75C5.69035 23.75 6.25 24.3096 6.25 25Z" stroke="#005F73" stroke-width="1.6"/>
<path d="M16.25 25C16.25 25.6904 15.6904 26.25 15 26.25C14.3096 26.25 13.75 25.6904 13.75 25C13.75 24.3096 14.3096 23.75 15 23.75C15.6904 23.75 16.25 24.3096 16.25 25Z" stroke="#005F73" stroke-width="1.6"/>
<path d="M26.25 25C26.25 25.6904 25.6904 26.25 25 26.25C24.3096 26.25 23.75 25.6904 23.75 25C23.75 24.3096 24.3096 23.75 25 23.75C25.6904 23.75 26.25 24.3096 26.25 25Z" stroke="#005F73" stroke-width="1.6"/>
</svg>
