<svg xmlns="http://www.w3.org/2000/svg" xmlns:xlink="http://www.w3.org/1999/xlink" width="48" zoomAndPan="magnify" viewBox="0 0 36 36.000001" height="48" preserveAspectRatio="xMidYMid meet" version="1.0"><defs><clipPath id="3c3f391334"><path d="M 0.488281 0 L 35.511719 0 L 35.511719 35.027344 L 0.488281 35.027344 Z M 0.488281 0 " clip-rule="nonzero"/></clipPath><clipPath id="092f451284"><path d="M 18 0 C 8.328125 0 0.488281 7.839844 0.488281 17.511719 C 0.488281 27.1875 8.328125 35.027344 18 35.027344 C 27.671875 35.027344 35.511719 27.1875 35.511719 17.511719 C 35.511719 7.839844 27.671875 0 18 0 Z M 18 0 " clip-rule="nonzero"/></clipPath><clipPath id="8d56f537f0"><path d="M 4.136719 3.648438 L 31.863281 3.648438 L 31.863281 31.378906 L 4.136719 31.378906 Z M 4.136719 3.648438 " clip-rule="nonzero"/></clipPath></defs><g clip-path="url(#3c3f391334)"><g clip-path="url(#092f451284)"><path fill="#87cb28" d="M 0.488281 0 L 35.511719 0 L 35.511719 35.027344 L 0.488281 35.027344 Z M 0.488281 0 " fill-opacity="1" fill-rule="nonzero"/></g></g><g clip-path="url(#8d56f537f0)"><path fill="#000000" d="M 18 5.1875 C 17.527344 5.1875 17.058594 5.214844 16.589844 5.269531 C 16.121094 5.320312 15.65625 5.402344 15.195312 5.507812 C 14.738281 5.613281 14.285156 5.746094 13.839844 5.90625 C 13.398438 6.066406 12.964844 6.246094 12.539062 6.457031 C 12.117188 6.664062 11.707031 6.894531 11.308594 7.152344 C 10.914062 7.40625 10.53125 7.683594 10.167969 7.984375 C 9.800781 8.28125 9.457031 8.601562 9.128906 8.9375 C 8.800781 9.277344 8.492188 9.632812 8.203125 10.007812 C 7.914062 10.382812 7.652344 10.769531 7.40625 11.175781 C 7.164062 11.578125 6.945312 11.996094 6.75 12.425781 C 6.554688 12.855469 6.386719 13.296875 6.242188 13.746094 C 6.097656 14.191406 5.976562 14.648438 5.886719 15.113281 C 5.792969 15.574219 5.726562 16.039062 5.6875 16.511719 C 5.648438 16.980469 5.636719 17.453125 5.652344 17.921875 C 5.667969 18.394531 5.710938 18.863281 5.777344 19.332031 C 5.847656 19.796875 5.941406 20.257812 6.066406 20.714844 C 6.1875 21.167969 6.332031 21.617188 6.507812 22.054688 C 6.679688 22.496094 6.878906 22.921875 7.101562 23.339844 C 7.320312 23.753906 7.566406 24.15625 7.835938 24.542969 C 8.101562 24.933594 8.394531 25.304688 8.703125 25.660156 C 9.015625 26.015625 9.34375 26.351562 9.695312 26.667969 C 10.042969 26.984375 10.410156 27.28125 10.792969 27.554688 C 11.175781 27.828125 11.574219 28.082031 11.984375 28.3125 C 12.398438 28.539062 12.820312 28.746094 13.257812 28.925781 C 13.695312 29.109375 14.136719 29.261719 14.59375 29.390625 C 15.046875 29.523438 15.503906 29.625 15.96875 29.703125 C 16.4375 29.78125 16.902344 29.832031 17.375 29.851562 C 17.847656 29.875 18.316406 29.875 18.789062 29.84375 C 19.257812 29.8125 19.726562 29.753906 20.191406 29.671875 C 20.65625 29.585938 21.113281 29.476562 21.5625 29.339844 C 22.015625 29.203125 22.457031 29.039062 22.890625 28.851562 C 23.324219 28.664062 23.742188 28.453125 24.152344 28.21875 C 24.5625 27.980469 24.953125 27.722656 25.332031 27.441406 C 25.710938 27.160156 26.074219 26.859375 26.417969 26.539062 C 26.761719 26.214844 27.089844 25.875 27.394531 25.515625 C 27.699219 25.15625 27.984375 24.78125 28.246094 24.386719 C 28.507812 23.996094 28.746094 23.589844 28.960938 23.167969 C 29.175781 22.75 29.367188 22.320312 29.535156 21.878906 C 29.699219 21.4375 29.839844 20.988281 29.957031 20.53125 C 30.070312 20.070312 30.160156 19.609375 30.21875 19.140625 C 30.28125 18.675781 30.316406 18.203125 30.324219 17.734375 C 30.332031 17.261719 30.3125 16.789062 30.265625 16.320312 C 30.21875 15.851562 30.148438 15.386719 30.046875 14.925781 C 29.949219 14.464844 29.824219 14.011719 29.671875 13.5625 C 29.519531 13.117188 29.34375 12.679688 29.140625 12.253906 C 28.941406 11.828125 28.714844 11.414062 28.464844 11.011719 C 28.214844 10.613281 27.945312 10.226562 27.652344 9.859375 C 27.359375 9.488281 27.046875 9.136719 26.710938 8.804688 C 25.554688 7.648438 24.222656 6.757812 22.714844 6.132812 C 21.207031 5.503906 19.632812 5.191406 18 5.1875 M 18 3.648438 C 18.910156 3.648438 19.8125 3.738281 20.703125 3.914062 C 21.597656 4.09375 22.464844 4.355469 23.304688 4.703125 C 24.148438 5.050781 24.945312 5.480469 25.703125 5.984375 C 26.460938 6.492188 27.160156 7.066406 27.804688 7.710938 C 28.449219 8.351562 29.023438 9.054688 29.527344 9.8125 C 30.035156 10.566406 30.460938 11.367188 30.808594 12.207031 C 31.15625 13.046875 31.421875 13.914062 31.597656 14.808594 C 31.777344 15.703125 31.863281 16.601562 31.863281 17.511719 C 31.863281 18.425781 31.777344 19.324219 31.597656 20.21875 C 31.421875 21.109375 31.15625 21.976562 30.808594 22.820312 C 30.460938 23.660156 30.035156 24.460938 29.527344 25.214844 C 29.023438 25.972656 28.449219 26.671875 27.804688 27.316406 C 27.160156 27.960938 26.460938 28.535156 25.703125 29.042969 C 24.945312 29.546875 24.148438 29.972656 23.304688 30.324219 C 22.464844 30.671875 21.597656 30.933594 20.703125 31.113281 C 19.8125 31.289062 18.910156 31.378906 18 31.378906 C 17.089844 31.378906 16.1875 31.289062 15.296875 31.113281 C 14.402344 30.933594 13.535156 30.671875 12.695312 30.324219 C 11.851562 29.972656 11.054688 29.546875 10.296875 29.042969 C 9.539062 28.535156 8.839844 27.960938 8.195312 27.316406 C 7.550781 26.671875 6.976562 25.972656 6.472656 25.214844 C 5.964844 24.460938 5.539062 23.660156 5.191406 22.820312 C 4.84375 21.976562 4.578125 21.109375 4.402344 20.21875 C 4.222656 19.324219 4.136719 18.425781 4.136719 17.511719 C 4.136719 16.601562 4.226562 15.703125 4.402344 14.808594 C 4.582031 13.917969 4.847656 13.050781 5.195312 12.210938 C 5.542969 11.371094 5.96875 10.570312 6.476562 9.8125 C 6.980469 9.058594 7.558594 8.359375 8.199219 7.714844 C 8.84375 7.070312 9.542969 6.496094 10.300781 5.988281 C 11.058594 5.484375 11.855469 5.058594 12.695312 4.707031 C 13.539062 4.359375 14.402344 4.097656 15.296875 3.917969 C 16.1875 3.738281 17.089844 3.648438 18 3.648438 Z M 18 3.648438 " fill-opacity="1" fill-rule="nonzero"/></g><path fill="#000000" d="M 14.917969 14.433594 C 14.917969 14.636719 14.878906 14.832031 14.800781 15.023438 C 14.722656 15.210938 14.613281 15.378906 14.46875 15.523438 C 14.324219 15.667969 14.15625 15.777344 13.96875 15.855469 C 13.777344 15.933594 13.582031 15.972656 13.378906 15.972656 C 13.175781 15.972656 12.976562 15.933594 12.789062 15.855469 C 12.601562 15.777344 12.433594 15.667969 12.289062 15.523438 C 12.144531 15.378906 12.035156 15.210938 11.957031 15.023438 C 11.875 14.832031 11.835938 14.636719 11.835938 14.433594 C 11.835938 14.226562 11.875 14.03125 11.957031 13.84375 C 12.035156 13.652344 12.144531 13.488281 12.289062 13.34375 C 12.433594 13.199219 12.601562 13.085938 12.789062 13.007812 C 12.976562 12.929688 13.175781 12.890625 13.378906 12.890625 C 13.582031 12.890625 13.777344 12.929688 13.96875 13.007812 C 14.15625 13.085938 14.324219 13.199219 14.46875 13.34375 C 14.613281 13.488281 14.722656 13.652344 14.800781 13.84375 C 14.878906 14.03125 14.917969 14.226562 14.917969 14.433594 Z M 14.917969 14.433594 " fill-opacity="1" fill-rule="nonzero"/><path fill="#000000" d="M 24.164062 14.433594 C 24.164062 14.636719 24.125 14.832031 24.042969 15.023438 C 23.964844 15.210938 23.855469 15.378906 23.710938 15.523438 C 23.566406 15.667969 23.398438 15.777344 23.210938 15.855469 C 23.023438 15.933594 22.824219 15.972656 22.621094 15.972656 C 22.417969 15.972656 22.222656 15.933594 22.03125 15.855469 C 21.84375 15.777344 21.675781 15.667969 21.53125 15.523438 C 21.386719 15.378906 21.277344 15.210938 21.199219 15.023438 C 21.121094 14.832031 21.082031 14.636719 21.082031 14.433594 C 21.082031 14.226562 21.121094 14.03125 21.199219 13.84375 C 21.277344 13.652344 21.386719 13.488281 21.53125 13.34375 C 21.675781 13.199219 21.84375 13.085938 22.03125 13.007812 C 22.222656 12.929688 22.417969 12.890625 22.621094 12.890625 C 22.824219 12.890625 23.023438 12.929688 23.210938 13.007812 C 23.398438 13.085938 23.566406 13.199219 23.710938 13.34375 C 23.855469 13.488281 23.964844 13.652344 24.042969 13.84375 C 24.125 14.03125 24.164062 14.226562 24.164062 14.433594 Z M 24.164062 14.433594 " fill-opacity="1" fill-rule="nonzero"/><path fill="#000000" d="M 10.917969 21.515625 C 10.769531 21.363281 10.695312 21.183594 10.695312 20.96875 C 10.695312 20.757812 10.769531 20.574219 10.917969 20.425781 C 11.070312 20.273438 11.25 20.199219 11.464844 20.199219 C 11.675781 20.199219 11.859375 20.273438 12.007812 20.425781 C 12.402344 20.816406 12.832031 21.167969 13.292969 21.476562 C 13.757812 21.785156 14.246094 22.046875 14.757812 22.257812 C 15.273438 22.472656 15.800781 22.632812 16.347656 22.738281 C 16.894531 22.847656 17.445312 22.902344 18 22.902344 C 18.554688 22.902344 19.105469 22.847656 19.652344 22.738281 C 20.199219 22.632812 20.726562 22.472656 21.242188 22.257812 C 21.757812 22.046875 22.246094 21.785156 22.707031 21.476562 C 23.167969 21.167969 23.597656 20.816406 23.992188 20.425781 C 24.140625 20.273438 24.324219 20.199219 24.535156 20.199219 C 24.75 20.199219 24.929688 20.273438 25.082031 20.425781 C 25.230469 20.574219 25.304688 20.757812 25.304688 20.96875 C 25.304688 21.183594 25.230469 21.363281 25.082031 21.515625 C 24.617188 21.976562 24.109375 22.394531 23.5625 22.757812 C 23.015625 23.121094 22.4375 23.429688 21.832031 23.679688 C 21.222656 23.933594 20.597656 24.121094 19.953125 24.25 C 19.308594 24.378906 18.65625 24.441406 18 24.441406 C 17.34375 24.441406 16.691406 24.378906 16.046875 24.25 C 15.402344 24.121094 14.777344 23.933594 14.167969 23.679688 C 13.5625 23.429688 12.984375 23.121094 12.4375 22.757812 C 11.890625 22.394531 11.386719 21.976562 10.917969 21.515625 Z M 10.917969 21.515625 " fill-opacity="1" fill-rule="nonzero"/></svg>