<svg xmlns="http://www.w3.org/2000/svg" xmlns:xlink="http://www.w3.org/1999/xlink" width="64" zoomAndPan="magnify" viewBox="0 0 48 48" height="64" preserveAspectRatio="xMidYMid meet" version="1.0"><defs><clipPath id="95e464e87c"><path d="M 0.488281 0 L 47.507812 0 L 47.507812 47.019531 L 0.488281 47.019531 Z M 0.488281 0 " clip-rule="nonzero"/></clipPath><clipPath id="68ed11ce81"><path d="M 24 0 C 11.015625 0 0.488281 10.527344 0.488281 23.511719 C 0.488281 36.496094 11.015625 47.019531 24 47.019531 C 36.984375 47.019531 47.511719 36.496094 47.511719 23.511719 C 47.511719 10.527344 36.984375 0 24 0 Z M 24 0 " clip-rule="nonzero"/></clipPath><clipPath id="43d4ae4dd0"><path d="M 18 8.875 L 30 8.875 L 30 16 L 18 16 Z M 18 8.875 " clip-rule="nonzero"/></clipPath><clipPath id="6aba901e57"><path d="M 32 32 L 38.625 32 L 38.625 38.261719 L 32 38.261719 Z M 32 32 " clip-rule="nonzero"/></clipPath><clipPath id="cefc11e6e4"><path d="M 21 32 L 27 32 L 27 38.261719 L 21 38.261719 Z M 21 32 " clip-rule="nonzero"/></clipPath><clipPath id="3f9532b861"><path d="M 9.238281 32 L 16 32 L 16 38.261719 L 9.238281 38.261719 Z M 9.238281 32 " clip-rule="nonzero"/></clipPath></defs><g clip-path="url(#95e464e87c)"><g clip-path="url(#68ed11ce81)"><path fill="#f1c232" d="M 0.488281 0 L 47.511719 0 L 47.511719 47.019531 L 0.488281 47.019531 Z M 0.488281 0 " fill-opacity="1" fill-rule="nonzero"/></g></g><path fill="#ffffff" d="M 26.921875 24.480469 L 26.921875 22.53125 L 31.796875 22.53125 C 32.117188 22.53125 32.433594 22.5625 32.75 22.625 C 33.0625 22.6875 33.367188 22.78125 33.664062 22.902344 C 33.957031 23.023438 34.238281 23.175781 34.507812 23.351562 C 34.773438 23.53125 35.019531 23.734375 35.246094 23.960938 C 35.472656 24.1875 35.671875 24.433594 35.851562 24.699219 C 36.027344 24.964844 36.179688 25.246094 36.300781 25.542969 C 36.425781 25.835938 36.515625 26.140625 36.582031 26.457031 C 36.644531 26.769531 36.675781 27.085938 36.675781 27.40625 L 36.675781 33.257812 L 34.722656 33.257812 L 34.722656 27.40625 C 34.722656 27.019531 34.648438 26.644531 34.5 26.289062 C 34.351562 25.929688 34.140625 25.613281 33.867188 25.339844 C 33.589844 25.0625 33.277344 24.851562 32.917969 24.703125 C 32.558594 24.554688 32.1875 24.480469 31.796875 24.480469 Z M 26.921875 24.480469 " fill-opacity="1" fill-rule="nonzero"/><path fill="#ffffff" d="M 11.011719 33.257812 L 11.011719 27.40625 C 11.011719 27.085938 11.042969 26.769531 11.105469 26.457031 C 11.167969 26.140625 11.261719 25.835938 11.382812 25.542969 C 11.503906 25.246094 11.65625 24.964844 11.832031 24.699219 C 12.011719 24.433594 12.214844 24.1875 12.441406 23.960938 C 12.667969 23.734375 12.914062 23.53125 13.179688 23.351562 C 13.445312 23.175781 13.726562 23.023438 14.019531 22.902344 C 14.316406 22.78125 14.621094 22.6875 14.9375 22.625 C 15.25 22.5625 15.566406 22.53125 15.886719 22.53125 L 21.070312 22.53125 L 21.070312 24.480469 L 15.886719 24.480469 C 15.5 24.480469 15.125 24.554688 14.765625 24.703125 C 14.410156 24.851562 14.09375 25.0625 13.820312 25.339844 C 13.542969 25.613281 13.332031 25.929688 13.183594 26.289062 C 13.035156 26.644531 12.960938 27.019531 12.960938 27.40625 L 12.960938 33.257812 Z M 11.011719 33.257812 " fill-opacity="1" fill-rule="nonzero"/><path fill="#ffffff" d="M 24.96875 14.726562 L 24.96875 20.578125 L 23.019531 20.578125 L 23.019531 14.726562 Z M 24.96875 14.726562 " fill-opacity="1" fill-rule="nonzero"/><path fill="#ffffff" d="M 24.96875 26.429688 L 24.96875 33.257812 L 23.019531 33.257812 L 23.019531 26.429688 Z M 24.96875 26.429688 " fill-opacity="1" fill-rule="nonzero"/><g clip-path="url(#43d4ae4dd0)"><path fill="#ffffff" d="M 29.847656 9.851562 L 29.847656 14.726562 C 29.847656 14.855469 29.824219 14.980469 29.773438 15.101562 C 29.722656 15.21875 29.652344 15.324219 29.5625 15.417969 C 29.46875 15.507812 29.363281 15.578125 29.246094 15.628906 C 29.125 15.675781 29 15.703125 28.871094 15.703125 L 19.117188 15.703125 C 18.988281 15.703125 18.863281 15.675781 18.746094 15.628906 C 18.625 15.578125 18.519531 15.507812 18.429688 15.417969 C 18.335938 15.324219 18.265625 15.21875 18.21875 15.101562 C 18.167969 14.980469 18.144531 14.855469 18.144531 14.726562 L 18.144531 9.851562 C 18.144531 9.71875 18.167969 9.597656 18.21875 9.476562 C 18.265625 9.355469 18.335938 9.25 18.429688 9.160156 C 18.519531 9.070312 18.625 9 18.746094 8.949219 C 18.863281 8.898438 18.988281 8.875 19.117188 8.875 L 28.871094 8.875 C 29 8.875 29.125 8.898438 29.246094 8.949219 C 29.363281 9 29.46875 9.070312 29.5625 9.160156 C 29.652344 9.25 29.722656 9.355469 29.773438 9.476562 C 29.824219 9.597656 29.847656 9.71875 29.847656 9.851562 Z M 29.847656 9.851562 " fill-opacity="1" fill-rule="nonzero"/></g><path fill="#ffffff" d="M 23.996094 27.40625 C 23.738281 27.40625 23.484375 27.382812 23.234375 27.332031 C 22.984375 27.28125 22.738281 27.207031 22.5 27.109375 C 22.265625 27.011719 22.039062 26.890625 21.828125 26.75 C 21.613281 26.605469 21.417969 26.445312 21.234375 26.265625 C 21.054688 26.082031 20.894531 25.886719 20.75 25.671875 C 20.609375 25.460938 20.488281 25.234375 20.390625 25 C 20.292969 24.761719 20.21875 24.515625 20.167969 24.265625 C 20.117188 24.015625 20.09375 23.761719 20.09375 23.503906 C 20.09375 23.25 20.117188 22.996094 20.167969 22.742188 C 20.21875 22.492188 20.292969 22.25 20.390625 22.011719 C 20.488281 21.773438 20.609375 21.550781 20.75 21.335938 C 20.894531 21.125 21.054688 20.925781 21.234375 20.746094 C 21.417969 20.566406 21.613281 20.402344 21.828125 20.261719 C 22.039062 20.117188 22.265625 20 22.5 19.898438 C 22.738281 19.800781 22.984375 19.726562 23.234375 19.679688 C 23.484375 19.628906 23.738281 19.601562 23.996094 19.601562 C 24.25 19.601562 24.503906 19.628906 24.757812 19.679688 C 25.007812 19.726562 25.25 19.800781 25.488281 19.898438 C 25.726562 20 25.949219 20.117188 26.164062 20.261719 C 26.375 20.402344 26.574219 20.566406 26.753906 20.746094 C 26.933594 20.925781 27.097656 21.125 27.238281 21.335938 C 27.382812 21.550781 27.5 21.773438 27.601562 22.011719 C 27.699219 22.25 27.773438 22.492188 27.820312 22.742188 C 27.871094 22.996094 27.898438 23.25 27.898438 23.503906 C 27.898438 23.761719 27.871094 24.015625 27.820312 24.265625 C 27.773438 24.515625 27.699219 24.761719 27.601562 25 C 27.5 25.234375 27.382812 25.460938 27.238281 25.671875 C 27.097656 25.886719 26.933594 26.082031 26.753906 26.265625 C 26.574219 26.445312 26.375 26.605469 26.164062 26.75 C 25.949219 26.890625 25.726562 27.011719 25.488281 27.109375 C 25.25 27.207031 25.007812 27.28125 24.757812 27.332031 C 24.503906 27.382812 24.25 27.40625 23.996094 27.40625 Z M 23.996094 27.40625 " fill-opacity="1" fill-rule="nonzero"/><g clip-path="url(#6aba901e57)"><path fill="#ffffff" d="M 38.625 33.257812 L 38.625 37.160156 C 38.625 37.289062 38.601562 37.414062 38.550781 37.535156 C 38.5 37.652344 38.429688 37.757812 38.339844 37.851562 C 38.25 37.941406 38.144531 38.011719 38.023438 38.0625 C 37.902344 38.109375 37.78125 38.136719 37.648438 38.136719 L 33.75 38.136719 C 33.621094 38.136719 33.496094 38.109375 33.375 38.0625 C 33.257812 38.011719 33.152344 37.941406 33.058594 37.851562 C 32.96875 37.757812 32.898438 37.652344 32.847656 37.535156 C 32.796875 37.414062 32.773438 37.289062 32.773438 37.160156 L 32.773438 33.257812 C 32.773438 33.128906 32.796875 33.003906 32.847656 32.886719 C 32.898438 32.765625 32.96875 32.660156 33.058594 32.570312 C 33.152344 32.476562 33.257812 32.40625 33.375 32.359375 C 33.496094 32.308594 33.621094 32.285156 33.75 32.285156 L 37.648438 32.285156 C 37.78125 32.285156 37.902344 32.308594 38.023438 32.359375 C 38.144531 32.40625 38.25 32.476562 38.339844 32.570312 C 38.429688 32.660156 38.5 32.765625 38.550781 32.886719 C 38.601562 33.003906 38.625 33.128906 38.625 33.257812 Z M 38.625 33.257812 " fill-opacity="1" fill-rule="nonzero"/></g><g clip-path="url(#cefc11e6e4)"><path fill="#ffffff" d="M 26.921875 33.257812 L 26.921875 37.160156 C 26.921875 37.289062 26.894531 37.414062 26.847656 37.535156 C 26.796875 37.652344 26.726562 37.757812 26.636719 37.851562 C 26.542969 37.941406 26.4375 38.011719 26.320312 38.0625 C 26.199219 38.109375 26.074219 38.136719 25.945312 38.136719 L 22.042969 38.136719 C 21.914062 38.136719 21.789062 38.109375 21.671875 38.0625 C 21.550781 38.011719 21.445312 37.941406 21.355469 37.851562 C 21.261719 37.757812 21.191406 37.652344 21.144531 37.535156 C 21.09375 37.414062 21.070312 37.289062 21.070312 37.160156 L 21.070312 33.257812 C 21.070312 33.128906 21.09375 33.003906 21.144531 32.886719 C 21.191406 32.765625 21.261719 32.660156 21.355469 32.570312 C 21.445312 32.476562 21.550781 32.40625 21.671875 32.359375 C 21.789062 32.308594 21.914062 32.285156 22.042969 32.285156 L 25.945312 32.285156 C 26.074219 32.285156 26.199219 32.308594 26.320312 32.359375 C 26.4375 32.40625 26.542969 32.476562 26.636719 32.570312 C 26.726562 32.660156 26.796875 32.765625 26.847656 32.886719 C 26.894531 33.003906 26.921875 33.128906 26.921875 33.257812 Z M 26.921875 33.257812 " fill-opacity="1" fill-rule="nonzero"/></g><g clip-path="url(#3f9532b861)"><path fill="#ffffff" d="M 15.214844 33.257812 L 15.214844 37.160156 C 15.214844 37.289062 15.191406 37.414062 15.140625 37.535156 C 15.09375 37.652344 15.023438 37.757812 14.929688 37.851562 C 14.839844 37.941406 14.734375 38.011719 14.613281 38.0625 C 14.496094 38.109375 14.371094 38.136719 14.242188 38.136719 L 10.339844 38.136719 C 10.210938 38.136719 10.085938 38.109375 9.964844 38.0625 C 9.847656 38.011719 9.742188 37.941406 9.648438 37.851562 C 9.558594 37.757812 9.488281 37.652344 9.4375 37.535156 C 9.390625 37.414062 9.363281 37.289062 9.363281 37.160156 L 9.363281 33.257812 C 9.363281 33.128906 9.390625 33.003906 9.4375 32.886719 C 9.488281 32.765625 9.558594 32.660156 9.648438 32.570312 C 9.742188 32.476562 9.847656 32.40625 9.964844 32.359375 C 10.085938 32.308594 10.210938 32.285156 10.339844 32.285156 L 14.242188 32.285156 C 14.371094 32.285156 14.496094 32.308594 14.613281 32.359375 C 14.734375 32.40625 14.839844 32.476562 14.929688 32.570312 C 15.023438 32.660156 15.09375 32.765625 15.140625 32.886719 C 15.191406 33.003906 15.214844 33.128906 15.214844 33.257812 Z M 15.214844 33.257812 " fill-opacity="1" fill-rule="nonzero"/></g></svg>