<svg xmlns="http://www.w3.org/2000/svg" xmlns:xlink="http://www.w3.org/1999/xlink" width="48" zoomAndPan="magnify" viewBox="0 0 36 36.000001" height="48" preserveAspectRatio="xMidYMid meet" version="1.0"><defs><clipPath id="18c87c4ff4"><path d="M 0.488281 0 L 35.511719 0 L 35.511719 35.027344 L 0.488281 35.027344 Z M 0.488281 0 " clip-rule="nonzero"/></clipPath><clipPath id="ce1c57dc40"><path d="M 18 0 C 8.328125 0 0.488281 7.839844 0.488281 17.511719 C 0.488281 27.1875 8.328125 35.027344 18 35.027344 C 27.671875 35.027344 35.511719 27.1875 35.511719 17.511719 C 35.511719 7.839844 27.671875 0 18 0 Z M 18 0 " clip-rule="nonzero"/></clipPath><clipPath id="6c0841b6d5"><path d="M 4.28125 3.792969 L 32.011719 3.792969 L 32.011719 31.523438 L 4.28125 31.523438 Z M 4.28125 3.792969 " clip-rule="nonzero"/></clipPath></defs><g clip-path="url(#18c87c4ff4)"><g clip-path="url(#ce1c57dc40)"><path fill="#ff0000" d="M 0.488281 0 L 35.511719 0 L 35.511719 35.027344 L 0.488281 35.027344 Z M 0.488281 0 " fill-opacity="1" fill-rule="nonzero"/></g></g><g clip-path="url(#6c0841b6d5)"><path fill="#000000" d="M 18.144531 5.335938 C 17.675781 5.335938 17.203125 5.359375 16.734375 5.414062 C 16.265625 5.46875 15.800781 5.546875 15.34375 5.65625 C 14.882812 5.761719 14.429688 5.894531 13.988281 6.050781 C 13.542969 6.210938 13.109375 6.394531 12.6875 6.601562 C 12.261719 6.808594 11.851562 7.042969 11.457031 7.296875 C 11.058594 7.550781 10.679688 7.828125 10.3125 8.128906 C 9.949219 8.425781 9.601562 8.746094 9.273438 9.085938 C 8.945312 9.421875 8.636719 9.78125 8.347656 10.152344 C 8.0625 10.527344 7.796875 10.917969 7.554688 11.320312 C 7.3125 11.726562 7.09375 12.144531 6.898438 12.574219 C 6.703125 13 6.53125 13.441406 6.386719 13.890625 C 6.242188 14.339844 6.125 14.792969 6.03125 15.257812 C 5.9375 15.71875 5.875 16.1875 5.835938 16.65625 C 5.796875 17.125 5.785156 17.597656 5.800781 18.070312 C 5.8125 18.539062 5.855469 19.007812 5.925781 19.476562 C 5.992188 19.941406 6.089844 20.402344 6.210938 20.859375 C 6.332031 21.316406 6.480469 21.761719 6.652344 22.203125 C 6.824219 22.640625 7.023438 23.066406 7.246094 23.484375 C 7.46875 23.902344 7.710938 24.300781 7.980469 24.691406 C 8.25 25.078125 8.539062 25.449219 8.847656 25.804688 C 9.160156 26.160156 9.492188 26.496094 9.839844 26.8125 C 10.1875 27.128906 10.554688 27.425781 10.9375 27.699219 C 11.320312 27.976562 11.71875 28.226562 12.132812 28.457031 C 12.542969 28.6875 12.96875 28.890625 13.402344 29.074219 C 13.839844 29.253906 14.285156 29.410156 14.738281 29.539062 C 15.191406 29.667969 15.652344 29.773438 16.117188 29.847656 C 16.582031 29.925781 17.050781 29.976562 17.519531 30 C 17.992188 30.023438 18.464844 30.019531 18.933594 29.988281 C 19.40625 29.957031 19.871094 29.902344 20.335938 29.816406 C 20.800781 29.730469 21.257812 29.621094 21.710938 29.484375 C 22.160156 29.347656 22.601562 29.1875 23.035156 29 C 23.46875 28.8125 23.890625 28.597656 24.296875 28.363281 C 24.707031 28.128906 25.101562 27.871094 25.480469 27.589844 C 25.859375 27.308594 26.21875 27.007812 26.566406 26.683594 C 26.910156 26.363281 27.234375 26.019531 27.539062 25.660156 C 27.84375 25.300781 28.128906 24.925781 28.390625 24.53125 C 28.652344 24.140625 28.890625 23.734375 29.105469 23.316406 C 29.324219 22.894531 29.515625 22.464844 29.679688 22.023438 C 29.847656 21.582031 29.988281 21.132812 30.101562 20.675781 C 30.214844 20.21875 30.304688 19.753906 30.367188 19.289062 C 30.429688 18.820312 30.460938 18.351562 30.46875 17.878906 C 30.476562 17.40625 30.457031 16.9375 30.414062 16.46875 C 30.367188 15.996094 30.292969 15.53125 30.195312 15.070312 C 30.09375 14.609375 29.96875 14.15625 29.816406 13.710938 C 29.664062 13.261719 29.488281 12.824219 29.289062 12.398438 C 29.085938 11.972656 28.859375 11.558594 28.613281 11.160156 C 28.363281 10.757812 28.089844 10.375 27.796875 10.003906 C 27.503906 9.632812 27.191406 9.28125 26.859375 8.949219 C 25.703125 7.792969 24.371094 6.902344 22.859375 6.277344 C 21.351562 5.652344 19.78125 5.335938 18.144531 5.335938 M 18.144531 3.792969 C 19.054688 3.792969 19.957031 3.882812 20.851562 4.0625 C 21.742188 4.238281 22.609375 4.5 23.453125 4.851562 C 24.292969 5.199219 25.09375 5.625 25.847656 6.132812 C 26.605469 6.636719 27.304688 7.210938 27.949219 7.855469 C 28.59375 8.5 29.167969 9.199219 29.675781 9.957031 C 30.179688 10.714844 30.605469 11.511719 30.957031 12.355469 C 31.304688 13.195312 31.566406 14.0625 31.746094 14.953125 C 31.921875 15.847656 32.011719 16.75 32.011719 17.660156 C 32.011719 18.570312 31.921875 19.472656 31.746094 20.363281 C 31.566406 21.257812 31.304688 22.125 30.957031 22.964844 C 30.605469 23.804688 30.179688 24.605469 29.675781 25.363281 C 29.167969 26.121094 28.59375 26.820312 27.949219 27.464844 C 27.304688 28.105469 26.605469 28.683594 25.847656 29.1875 C 25.09375 29.695312 24.292969 30.121094 23.453125 30.46875 C 22.609375 30.816406 21.742188 31.082031 20.851562 31.257812 C 19.957031 31.433594 19.054688 31.523438 18.144531 31.523438 C 17.234375 31.523438 16.332031 31.433594 15.441406 31.257812 C 14.546875 31.082031 13.679688 30.816406 12.839844 30.46875 C 12 30.121094 11.199219 29.695312 10.441406 29.1875 C 9.6875 28.683594 8.984375 28.105469 8.34375 27.464844 C 7.699219 26.820312 7.125 26.121094 6.617188 25.363281 C 6.113281 24.605469 5.683594 23.804688 5.335938 22.964844 C 4.988281 22.125 4.726562 21.257812 4.546875 20.363281 C 4.371094 19.472656 4.28125 18.570312 4.28125 17.660156 C 4.28125 16.75 4.371094 15.847656 4.550781 14.957031 C 4.726562 14.0625 4.992188 13.195312 5.339844 12.355469 C 5.6875 11.515625 6.117188 10.714844 6.621094 9.960938 C 7.128906 9.203125 7.703125 8.503906 8.347656 7.859375 C 8.988281 7.214844 9.691406 6.640625 10.445312 6.136719 C 11.203125 5.628906 12 5.203125 12.84375 4.855469 C 13.683594 4.503906 14.550781 4.242188 15.441406 4.0625 C 16.335938 3.886719 17.234375 3.796875 18.144531 3.792969 Z M 18.144531 3.792969 " fill-opacity="1" fill-rule="nonzero"/></g><path fill="#000000" d="M 15.066406 14.578125 C 15.066406 14.78125 15.027344 14.980469 14.949219 15.167969 C 14.871094 15.355469 14.757812 15.523438 14.613281 15.667969 C 14.46875 15.8125 14.300781 15.921875 14.113281 16 C 13.925781 16.078125 13.730469 16.117188 13.523438 16.117188 C 13.320312 16.117188 13.125 16.078125 12.933594 16 C 12.746094 15.921875 12.578125 15.8125 12.433594 15.667969 C 12.289062 15.523438 12.179688 15.355469 12.101562 15.167969 C 12.023438 14.980469 11.984375 14.78125 11.984375 14.578125 C 11.984375 14.375 12.023438 14.175781 12.101562 13.988281 C 12.179688 13.800781 12.289062 13.632812 12.433594 13.488281 C 12.578125 13.34375 12.746094 13.234375 12.933594 13.15625 C 13.125 13.078125 13.320312 13.039062 13.523438 13.039062 C 13.730469 13.039062 13.925781 13.078125 14.113281 13.15625 C 14.300781 13.234375 14.46875 13.34375 14.613281 13.488281 C 14.757812 13.632812 14.871094 13.800781 14.949219 13.988281 C 15.027344 14.175781 15.066406 14.375 15.066406 14.578125 Z M 15.066406 14.578125 " fill-opacity="1" fill-rule="nonzero"/><path fill="#000000" d="M 24.308594 14.578125 C 24.308594 14.78125 24.269531 14.980469 24.191406 15.167969 C 24.113281 15.355469 24 15.523438 23.855469 15.667969 C 23.710938 15.8125 23.546875 15.921875 23.355469 16 C 23.167969 16.078125 22.972656 16.117188 22.765625 16.117188 C 22.5625 16.117188 22.367188 16.078125 22.179688 16 C 21.988281 15.921875 21.824219 15.8125 21.679688 15.667969 C 21.535156 15.523438 21.421875 15.355469 21.34375 15.167969 C 21.265625 14.980469 21.226562 14.78125 21.226562 14.578125 C 21.226562 14.375 21.265625 14.175781 21.34375 13.988281 C 21.421875 13.800781 21.535156 13.632812 21.679688 13.488281 C 21.824219 13.34375 21.988281 13.234375 22.179688 13.15625 C 22.367188 13.078125 22.5625 13.039062 22.765625 13.039062 C 22.972656 13.039062 23.167969 13.078125 23.355469 13.15625 C 23.546875 13.234375 23.710938 13.34375 23.855469 13.488281 C 24 13.632812 24.113281 13.800781 24.191406 13.988281 C 24.269531 14.175781 24.308594 14.375 24.308594 14.578125 Z M 24.308594 14.578125 " fill-opacity="1" fill-rule="nonzero"/><path fill="#000000" d="M 25.226562 22.902344 C 25.375 23.050781 25.453125 23.234375 25.453125 23.445312 C 25.453125 23.660156 25.375 23.839844 25.226562 23.992188 C 25.074219 24.140625 24.894531 24.214844 24.683594 24.214844 C 24.46875 24.214844 24.289062 24.140625 24.136719 23.992188 C 23.742188 23.597656 23.316406 23.246094 22.851562 22.9375 C 22.390625 22.628906 21.902344 22.371094 21.386719 22.15625 C 20.875 21.945312 20.34375 21.785156 19.796875 21.675781 C 19.253906 21.566406 18.703125 21.511719 18.144531 21.511719 C 17.589844 21.511719 17.039062 21.566406 16.492188 21.675781 C 15.949219 21.785156 15.417969 21.945312 14.902344 22.15625 C 14.390625 22.371094 13.902344 22.628906 13.4375 22.9375 C 12.976562 23.246094 12.546875 23.597656 12.15625 23.992188 C 12.003906 24.140625 11.824219 24.214844 11.609375 24.214844 C 11.398438 24.214844 11.214844 24.140625 11.066406 23.992188 C 10.914062 23.839844 10.839844 23.660156 10.839844 23.445312 C 10.839844 23.234375 10.914062 23.050781 11.066406 22.902344 C 11.53125 22.4375 12.035156 22.023438 12.582031 21.65625 C 13.128906 21.292969 13.707031 20.984375 14.316406 20.734375 C 14.921875 20.484375 15.546875 20.292969 16.191406 20.164062 C 16.835938 20.035156 17.488281 19.972656 18.144531 19.972656 C 18.804688 19.972656 19.453125 20.035156 20.097656 20.164062 C 20.742188 20.292969 21.371094 20.484375 21.976562 20.734375 C 22.585938 20.984375 23.160156 21.292969 23.707031 21.65625 C 24.253906 22.023438 24.761719 22.4375 25.226562 22.902344 Z M 25.226562 22.902344 " fill-opacity="1" fill-rule="nonzero"/></svg>